<?xml version="1.0" encoding="UTF-8" standalone="no"?>
<!DOCTYPE svg PUBLIC "-//W3C//DTD SVG 1.1//EN"
 "http://www.w3.org/Graphics/SVG/1.1/DTD/svg11.dtd">
<!-- Generated by graphviz version 2.47.0 (20210316.0004)
 -->
<!-- Title: dependencies Pages: 1 -->
<svg width="504pt" height="211pt"
 viewBox="0.00 0.00 504.00 211.00" xmlns="http://www.w3.org/2000/svg" xmlns:xlink="http://www.w3.org/1999/xlink">
<g id="graph0" class="graph" transform="scale(1 1) rotate(0) translate(4 207)">
<title>dependencies</title>
<polygon fill="white" stroke="transparent" points="-4,4 -4,-207 500,-207 500,4 -4,4"/>
<text text-anchor="start" x="227.01" y="-42.4" font-family="Times-12" font-weight="bold" font-size="14.00">Legend</text>
<polygon fill="#ffffb3" stroke="transparent" points="14,-10 14,-30 34,-30 34,-10 14,-10"/>
<text text-anchor="start" x="37.63" y="-15.4" font-family="Times-12" font-size="14.00"> &#160;Declarations</text>
<polygon fill="#8dd3c7" stroke="transparent" points="127,-10 127,-30 147,-30 147,-10 127,-10"/>
<text text-anchor="start" x="150.73" y="-15.4" font-family="Times-12" font-size="14.00"> &#160;Module</text>
<polygon fill="#80b1d3" stroke="transparent" points="213,-10 213,-30 233,-30 233,-10 213,-10"/>
<text text-anchor="start" x="236.78" y="-15.4" font-family="Times-12" font-size="14.00"> &#160;Bootstrap</text>
<polygon fill="#fdb462" stroke="transparent" points="310,-10 310,-30 330,-30 330,-10 310,-10"/>
<text text-anchor="start" x="333.67" y="-15.4" font-family="Times-12" font-size="14.00"> &#160;Providers</text>
<polygon fill="#fb8072" stroke="transparent" points="406,-10 406,-30 426,-30 426,-10 406,-10"/>
<text text-anchor="start" x="429.73" y="-15.4" font-family="Times-12" font-size="14.00"> &#160;Exports</text>
<g id="clust1" class="cluster">
<title>cluster_AuthenticationModule</title>
<polygon fill="none" stroke="black" stroke-dasharray="1,5" points="30.5,-70 30.5,-195 465.5,-195 465.5,-70 30.5,-70"/>
</g>
<g id="clust6" class="cluster">
<title>cluster_AuthenticationModule_providers</title>
<polygon fill="none" stroke="black" points="38.5,-78 38.5,-130 457.5,-130 457.5,-78 38.5,-78"/>
</g>
<!-- AccessTokenStrategy -->
<g id="node1" class="node">
<title>AccessTokenStrategy</title>
<ellipse fill="#fdb462" stroke="black" cx="354.5" cy="-104" rx="95.46" ry="18"/>
<text text-anchor="middle" x="354.5" y="-99.8" font-family="Times,serif" font-size="14.00">AccessTokenStrategy</text>
</g>
<!-- AuthenticationModule -->
<g id="node3" class="node">
<title>AuthenticationModule</title>
<polygon fill="#8dd3c7" stroke="black" points="319.75,-187 316.75,-191 295.75,-191 292.75,-187 177.25,-187 177.25,-151 319.75,-151 319.75,-187"/>
<text text-anchor="middle" x="248.5" y="-164.8" font-family="Times,serif" font-size="14.00">AuthenticationModule</text>
</g>
<!-- AccessTokenStrategy&#45;&gt;AuthenticationModule -->
<g id="edge1" class="edge">
<title>AccessTokenStrategy&#45;&gt;AuthenticationModule</title>
<path fill="none" stroke="black" d="M289.57,-117.47C289.57,-117.47 289.57,-140.86 289.57,-140.86"/>
<polygon fill="black" stroke="black" points="286.07,-140.86 289.57,-150.86 293.07,-140.86 286.07,-140.86"/>
</g>
<!-- AuthenticationService -->
<g id="node2" class="node">
<title>AuthenticationService</title>
<ellipse fill="#fdb462" stroke="black" cx="143.5" cy="-104" rx="97.27" ry="18"/>
<text text-anchor="middle" x="143.5" y="-99.8" font-family="Times,serif" font-size="14.00">AuthenticationService</text>
</g>
<!-- AuthenticationService&#45;&gt;AuthenticationModule -->
<g id="edge2" class="edge">
<title>AuthenticationService&#45;&gt;AuthenticationModule</title>
<path fill="none" stroke="black" d="M209,-117.47C209,-117.47 209,-140.86 209,-140.86"/>
<polygon fill="black" stroke="black" points="205.5,-140.86 209,-150.86 212.5,-140.86 205.5,-140.86"/>
</g>
</g>
</svg>
