<?xml version="1.0" encoding="UTF-8" standalone="no"?>
<!DOCTYPE svg PUBLIC "-//W3C//DTD SVG 1.1//EN"
 "http://www.w3.org/Graphics/SVG/1.1/DTD/svg11.dtd">
<!-- Generated by graphviz version 2.47.0 (20210316.0004)
 -->
<!-- Title: dependencies Pages: 1 -->
<svg width="1073pt" height="211pt"
 viewBox="0.00 0.00 1073.00 211.00" xmlns="http://www.w3.org/2000/svg" xmlns:xlink="http://www.w3.org/1999/xlink">
<g id="graph0" class="graph" transform="scale(1 1) rotate(0) translate(4 207)">
<title>dependencies</title>
<polygon fill="white" stroke="transparent" points="-4,4 -4,-207 1069,-207 1069,4 -4,4"/>
<text text-anchor="start" x="511.51" y="-42.4" font-family="Times-12" font-weight="bold" font-size="14.00">Legend</text>
<polygon fill="#ffffb3" stroke="transparent" points="298.5,-10 298.5,-30 318.5,-30 318.5,-10 298.5,-10"/>
<text text-anchor="start" x="322.13" y="-15.4" font-family="Times-12" font-size="14.00"> &#160;Declarations</text>
<polygon fill="#8dd3c7" stroke="transparent" points="411.5,-10 411.5,-30 431.5,-30 431.5,-10 411.5,-10"/>
<text text-anchor="start" x="435.23" y="-15.4" font-family="Times-12" font-size="14.00"> &#160;Module</text>
<polygon fill="#80b1d3" stroke="transparent" points="497.5,-10 497.5,-30 517.5,-30 517.5,-10 497.5,-10"/>
<text text-anchor="start" x="521.28" y="-15.4" font-family="Times-12" font-size="14.00"> &#160;Bootstrap</text>
<polygon fill="#fdb462" stroke="transparent" points="594.5,-10 594.5,-30 614.5,-30 614.5,-10 594.5,-10"/>
<text text-anchor="start" x="618.17" y="-15.4" font-family="Times-12" font-size="14.00"> &#160;Providers</text>
<polygon fill="#fb8072" stroke="transparent" points="690.5,-10 690.5,-30 710.5,-30 710.5,-10 690.5,-10"/>
<text text-anchor="start" x="714.23" y="-15.4" font-family="Times-12" font-size="14.00"> &#160;Exports</text>
<g id="clust1" class="cluster">
<title>cluster_AuthenticationModule</title>
<polygon fill="none" stroke="black" stroke-dasharray="1,5" points="8,-70 8,-195 1057,-195 1057,-70 8,-70"/>
</g>
<g id="clust6" class="cluster">
<title>cluster_AuthenticationModule_providers</title>
<polygon fill="none" stroke="black" points="16,-78 16,-130 1049,-130 1049,-78 16,-78"/>
</g>
<!-- AccessTokenStrategy -->
<g id="node1" class="node">
<title>AccessTokenStrategy</title>
<ellipse fill="#fdb462" stroke="black" cx="946" cy="-104" rx="95.46" ry="18"/>
<text text-anchor="middle" x="946" y="-99.8" font-family="Times,serif" font-size="14.00">AccessTokenStrategy</text>
</g>
<!-- AuthenticationModule -->
<g id="node6" class="node">
<title>AuthenticationModule</title>
<polygon fill="#8dd3c7" stroke="black" points="584.25,-187 581.25,-191 560.25,-191 557.25,-187 441.75,-187 441.75,-151 584.25,-151 584.25,-187"/>
<text text-anchor="middle" x="513" y="-164.8" font-family="Times,serif" font-size="14.00">AuthenticationModule</text>
</g>
<!-- AccessTokenStrategy&#45;&gt;AuthenticationModule -->
<g id="edge1" class="edge">
<title>AccessTokenStrategy&#45;&gt;AuthenticationModule</title>
<path fill="none" stroke="black" d="M946,-122.28C946,-143.32 946,-175 946,-175 946,-175 594.5,-175 594.5,-175"/>
<polygon fill="black" stroke="black" points="594.5,-171.5 584.5,-175 594.5,-178.5 594.5,-171.5"/>
</g>
<!-- AuthenticationService -->
<g id="node2" class="node">
<title>AuthenticationService</title>
<ellipse fill="#fdb462" stroke="black" cx="735" cy="-104" rx="97.27" ry="18"/>
<text text-anchor="middle" x="735" y="-99.8" font-family="Times,serif" font-size="14.00">AuthenticationService</text>
</g>
<!-- AuthenticationService&#45;&gt;AuthenticationModule -->
<g id="edge2" class="edge">
<title>AuthenticationService&#45;&gt;AuthenticationModule</title>
<path fill="none" stroke="black" d="M735,-122.02C735,-139.37 735,-163 735,-163 735,-163 594.46,-163 594.46,-163"/>
<polygon fill="black" stroke="black" points="594.46,-159.5 584.46,-163 594.46,-166.5 594.46,-159.5"/>
</g>
<!-- RefreshTokenIdsStorage -->
<g id="node3" class="node">
<title>RefreshTokenIdsStorage</title>
<ellipse fill="#fdb462" stroke="black" cx="513" cy="-104" rx="107.06" ry="18"/>
<text text-anchor="middle" x="513" y="-99.8" font-family="Times,serif" font-size="14.00">RefreshTokenIdsStorage</text>
</g>
<!-- RefreshTokenIdsStorage&#45;&gt;AuthenticationModule -->
<g id="edge3" class="edge">
<title>RefreshTokenIdsStorage&#45;&gt;AuthenticationModule</title>
<path fill="none" stroke="black" d="M513,-122.11C513,-122.11 513,-140.99 513,-140.99"/>
<polygon fill="black" stroke="black" points="509.5,-140.99 513,-150.99 516.5,-140.99 509.5,-140.99"/>
</g>
<!-- TfaAuthenticationService -->
<g id="node4" class="node">
<title>TfaAuthenticationService</title>
<ellipse fill="#fdb462" stroke="black" cx="277" cy="-104" rx="110.57" ry="18"/>
<text text-anchor="middle" x="277" y="-99.8" font-family="Times,serif" font-size="14.00">TfaAuthenticationService</text>
</g>
<!-- TfaAuthenticationService&#45;&gt;AuthenticationModule -->
<g id="edge4" class="edge">
<title>TfaAuthenticationService&#45;&gt;AuthenticationModule</title>
<path fill="none" stroke="black" d="M277,-122.02C277,-139.37 277,-163 277,-163 277,-163 431.55,-163 431.55,-163"/>
<polygon fill="black" stroke="black" points="431.55,-166.5 441.55,-163 431.55,-159.5 431.55,-166.5"/>
</g>
<!-- UsersService -->
<g id="node5" class="node">
<title>UsersService</title>
<ellipse fill="#fdb462" stroke="black" cx="86" cy="-104" rx="61.95" ry="18"/>
<text text-anchor="middle" x="86" y="-99.8" font-family="Times,serif" font-size="14.00">UsersService</text>
</g>
<!-- UsersService&#45;&gt;AuthenticationModule -->
<g id="edge5" class="edge">
<title>UsersService&#45;&gt;AuthenticationModule</title>
<path fill="none" stroke="black" d="M86,-122.28C86,-143.32 86,-175 86,-175 86,-175 431.53,-175 431.53,-175"/>
<polygon fill="black" stroke="black" points="431.53,-178.5 441.53,-175 431.53,-171.5 431.53,-178.5"/>
</g>
</g>
</svg>
