<?xml version="1.0" encoding="UTF-8" standalone="no"?>
<!DOCTYPE svg PUBLIC "-//W3C//DTD SVG 1.1//EN"
 "http://www.w3.org/Graphics/SVG/1.1/DTD/svg11.dtd">
<!-- Generated by graphviz version 2.47.0 (20210316.0004)
 -->
<!-- Title: dependencies Pages: 1 -->
<svg width="1219pt" height="211pt"
 viewBox="0.00 0.00 1219.00 211.00" xmlns="http://www.w3.org/2000/svg" xmlns:xlink="http://www.w3.org/1999/xlink">
<g id="graph0" class="graph" transform="scale(1 1) rotate(0) translate(4 207)">
<title>dependencies</title>
<polygon fill="white" stroke="transparent" points="-4,4 -4,-207 1215,-207 1215,4 -4,4"/>
<text text-anchor="start" x="584.51" y="-42.4" font-family="Times-12" font-weight="bold" font-size="14.00">Legend</text>
<polygon fill="#ffffb3" stroke="transparent" points="371.5,-10 371.5,-30 391.5,-30 391.5,-10 371.5,-10"/>
<text text-anchor="start" x="395.13" y="-15.4" font-family="Times-12" font-size="14.00"> &#160;Declarations</text>
<polygon fill="#8dd3c7" stroke="transparent" points="484.5,-10 484.5,-30 504.5,-30 504.5,-10 484.5,-10"/>
<text text-anchor="start" x="508.23" y="-15.4" font-family="Times-12" font-size="14.00"> &#160;Module</text>
<polygon fill="#80b1d3" stroke="transparent" points="570.5,-10 570.5,-30 590.5,-30 590.5,-10 570.5,-10"/>
<text text-anchor="start" x="594.28" y="-15.4" font-family="Times-12" font-size="14.00"> &#160;Bootstrap</text>
<polygon fill="#fdb462" stroke="transparent" points="667.5,-10 667.5,-30 687.5,-30 687.5,-10 667.5,-10"/>
<text text-anchor="start" x="691.17" y="-15.4" font-family="Times-12" font-size="14.00"> &#160;Providers</text>
<polygon fill="#fb8072" stroke="transparent" points="763.5,-10 763.5,-30 783.5,-30 783.5,-10 763.5,-10"/>
<text text-anchor="start" x="787.23" y="-15.4" font-family="Times-12" font-size="14.00"> &#160;Exports</text>
<g id="clust1" class="cluster">
<title>cluster_AuthenticationModule</title>
<polygon fill="none" stroke="black" stroke-dasharray="1,5" points="8,-70 8,-195 1203,-195 1203,-70 8,-70"/>
</g>
<g id="clust6" class="cluster">
<title>cluster_AuthenticationModule_providers</title>
<polygon fill="none" stroke="black" points="16,-78 16,-130 1195,-130 1195,-78 16,-78"/>
</g>
<!-- AccessTokenStrategy -->
<g id="node1" class="node">
<title>AccessTokenStrategy</title>
<ellipse fill="#fdb462" stroke="black" cx="1092" cy="-104" rx="95.46" ry="18"/>
<text text-anchor="middle" x="1092" y="-99.8" font-family="Times,serif" font-size="14.00">AccessTokenStrategy</text>
</g>
<!-- AuthenticationModule -->
<g id="node7" class="node">
<title>AuthenticationModule</title>
<polygon fill="#8dd3c7" stroke="black" points="678.25,-187 675.25,-191 654.25,-191 651.25,-187 535.75,-187 535.75,-151 678.25,-151 678.25,-187"/>
<text text-anchor="middle" x="607" y="-164.8" font-family="Times,serif" font-size="14.00">AuthenticationModule</text>
</g>
<!-- AccessTokenStrategy&#45;&gt;AuthenticationModule -->
<g id="edge1" class="edge">
<title>AccessTokenStrategy&#45;&gt;AuthenticationModule</title>
<path fill="none" stroke="black" d="M1092,-122.28C1092,-143.32 1092,-175 1092,-175 1092,-175 688.3,-175 688.3,-175"/>
<polygon fill="black" stroke="black" points="688.3,-171.5 678.3,-175 688.3,-178.5 688.3,-171.5"/>
</g>
<!-- AuthenticationService -->
<g id="node2" class="node">
<title>AuthenticationService</title>
<ellipse fill="#fdb462" stroke="black" cx="881" cy="-104" rx="97.27" ry="18"/>
<text text-anchor="middle" x="881" y="-99.8" font-family="Times,serif" font-size="14.00">AuthenticationService</text>
</g>
<!-- AuthenticationService&#45;&gt;AuthenticationModule -->
<g id="edge2" class="edge">
<title>AuthenticationService&#45;&gt;AuthenticationModule</title>
<path fill="none" stroke="black" d="M881,-122.02C881,-139.37 881,-163 881,-163 881,-163 688.28,-163 688.28,-163"/>
<polygon fill="black" stroke="black" points="688.28,-159.5 678.28,-163 688.27,-166.5 688.28,-159.5"/>
</g>
<!-- CloudService -->
<g id="node3" class="node">
<title>CloudService</title>
<ellipse fill="#fdb462" stroke="black" cx="702" cy="-104" rx="63.7" ry="18"/>
<text text-anchor="middle" x="702" y="-99.8" font-family="Times,serif" font-size="14.00">CloudService</text>
</g>
<!-- CloudService&#45;&gt;AuthenticationModule -->
<g id="edge3" class="edge">
<title>CloudService&#45;&gt;AuthenticationModule</title>
<path fill="none" stroke="black" d="M658.39,-117.15C658.39,-117.15 658.39,-140.69 658.39,-140.69"/>
<polygon fill="black" stroke="black" points="654.89,-140.69 658.39,-150.69 661.89,-140.69 654.89,-140.69"/>
</g>
<!-- RefreshTokenIdsStorage -->
<g id="node4" class="node">
<title>RefreshTokenIdsStorage</title>
<ellipse fill="#fdb462" stroke="black" cx="513" cy="-104" rx="107.06" ry="18"/>
<text text-anchor="middle" x="513" y="-99.8" font-family="Times,serif" font-size="14.00">RefreshTokenIdsStorage</text>
</g>
<!-- RefreshTokenIdsStorage&#45;&gt;AuthenticationModule -->
<g id="edge4" class="edge">
<title>RefreshTokenIdsStorage&#45;&gt;AuthenticationModule</title>
<path fill="none" stroke="black" d="M577.83,-118.43C577.83,-118.43 577.83,-140.89 577.83,-140.89"/>
<polygon fill="black" stroke="black" points="574.33,-140.89 577.83,-150.89 581.33,-140.89 574.33,-140.89"/>
</g>
<!-- TfaAuthenticationService -->
<g id="node5" class="node">
<title>TfaAuthenticationService</title>
<ellipse fill="#fdb462" stroke="black" cx="277" cy="-104" rx="110.57" ry="18"/>
<text text-anchor="middle" x="277" y="-99.8" font-family="Times,serif" font-size="14.00">TfaAuthenticationService</text>
</g>
<!-- TfaAuthenticationService&#45;&gt;AuthenticationModule -->
<g id="edge5" class="edge">
<title>TfaAuthenticationService&#45;&gt;AuthenticationModule</title>
<path fill="none" stroke="black" d="M277,-122.02C277,-139.37 277,-163 277,-163 277,-163 525.39,-163 525.39,-163"/>
<polygon fill="black" stroke="black" points="525.39,-166.5 535.39,-163 525.39,-159.5 525.39,-166.5"/>
</g>
<!-- UsersService -->
<g id="node6" class="node">
<title>UsersService</title>
<ellipse fill="#fdb462" stroke="black" cx="86" cy="-104" rx="61.95" ry="18"/>
<text text-anchor="middle" x="86" y="-99.8" font-family="Times,serif" font-size="14.00">UsersService</text>
</g>
<!-- UsersService&#45;&gt;AuthenticationModule -->
<g id="edge6" class="edge">
<title>UsersService&#45;&gt;AuthenticationModule</title>
<path fill="none" stroke="black" d="M86,-122.28C86,-143.32 86,-175 86,-175 86,-175 525.65,-175 525.65,-175"/>
<polygon fill="black" stroke="black" points="525.65,-178.5 535.65,-175 525.65,-171.5 525.65,-178.5"/>
</g>
</g>
</svg>
