<?xml version="1.0" encoding="UTF-8" standalone="no"?>
<!DOCTYPE svg PUBLIC "-//W3C//DTD SVG 1.1//EN"
 "http://www.w3.org/Graphics/SVG/1.1/DTD/svg11.dtd">
<!-- Generated by graphviz version 2.47.0 (20210316.0004)
 -->
<!-- Title: dependencies Pages: 1 -->
<svg width="963pt" height="211pt"
 viewBox="0.00 0.00 963.00 211.00" xmlns="http://www.w3.org/2000/svg" xmlns:xlink="http://www.w3.org/1999/xlink">
<g id="graph0" class="graph" transform="scale(1 1) rotate(0) translate(4 207)">
<title>dependencies</title>
<polygon fill="white" stroke="transparent" points="-4,4 -4,-207 959,-207 959,4 -4,4"/>
<text text-anchor="start" x="456.51" y="-42.4" font-family="Times-12" font-weight="bold" font-size="14.00">Legend</text>
<polygon fill="#ffffb3" stroke="transparent" points="243.5,-10 243.5,-30 263.5,-30 263.5,-10 243.5,-10"/>
<text text-anchor="start" x="267.13" y="-15.4" font-family="Times-12" font-size="14.00"> &#160;Declarations</text>
<polygon fill="#8dd3c7" stroke="transparent" points="356.5,-10 356.5,-30 376.5,-30 376.5,-10 356.5,-10"/>
<text text-anchor="start" x="380.23" y="-15.4" font-family="Times-12" font-size="14.00"> &#160;Module</text>
<polygon fill="#80b1d3" stroke="transparent" points="442.5,-10 442.5,-30 462.5,-30 462.5,-10 442.5,-10"/>
<text text-anchor="start" x="466.28" y="-15.4" font-family="Times-12" font-size="14.00"> &#160;Bootstrap</text>
<polygon fill="#fdb462" stroke="transparent" points="539.5,-10 539.5,-30 559.5,-30 559.5,-10 539.5,-10"/>
<text text-anchor="start" x="563.17" y="-15.4" font-family="Times-12" font-size="14.00"> &#160;Providers</text>
<polygon fill="#fb8072" stroke="transparent" points="635.5,-10 635.5,-30 655.5,-30 655.5,-10 635.5,-10"/>
<text text-anchor="start" x="659.23" y="-15.4" font-family="Times-12" font-size="14.00"> &#160;Exports</text>
<g id="clust1" class="cluster">
<title>cluster_AuthenticationModule</title>
<polygon fill="none" stroke="black" stroke-dasharray="1,5" points="8,-70 8,-195 947,-195 947,-70 8,-70"/>
</g>
<g id="clust6" class="cluster">
<title>cluster_AuthenticationModule_providers</title>
<polygon fill="none" stroke="black" points="16,-78 16,-130 939,-130 939,-78 16,-78"/>
</g>
<!-- AccessTokenStrategy -->
<g id="node1" class="node">
<title>AccessTokenStrategy</title>
<ellipse fill="#fdb462" stroke="black" cx="836" cy="-104" rx="95.46" ry="18"/>
<text text-anchor="middle" x="836" y="-99.8" font-family="Times,serif" font-size="14.00">AccessTokenStrategy</text>
</g>
<!-- AuthenticationModule -->
<g id="node5" class="node">
<title>AuthenticationModule</title>
<polygon fill="#8dd3c7" stroke="black" points="585.25,-187 582.25,-191 561.25,-191 558.25,-187 442.75,-187 442.75,-151 585.25,-151 585.25,-187"/>
<text text-anchor="middle" x="514" y="-164.8" font-family="Times,serif" font-size="14.00">AuthenticationModule</text>
</g>
<!-- AccessTokenStrategy&#45;&gt;AuthenticationModule -->
<g id="edge1" class="edge">
<title>AccessTokenStrategy&#45;&gt;AuthenticationModule</title>
<path fill="none" stroke="black" d="M836,-122.11C836,-141.34 836,-169 836,-169 836,-169 595.46,-169 595.46,-169"/>
<polygon fill="black" stroke="black" points="595.46,-165.5 585.46,-169 595.46,-172.5 595.46,-165.5"/>
</g>
<!-- AuthenticationService -->
<g id="node2" class="node">
<title>AuthenticationService</title>
<ellipse fill="#fdb462" stroke="black" cx="625" cy="-104" rx="97.27" ry="18"/>
<text text-anchor="middle" x="625" y="-99.8" font-family="Times,serif" font-size="14.00">AuthenticationService</text>
</g>
<!-- AuthenticationService&#45;&gt;AuthenticationModule -->
<g id="edge2" class="edge">
<title>AuthenticationService&#45;&gt;AuthenticationModule</title>
<path fill="none" stroke="black" d="M556.5,-116.84C556.5,-116.84 556.5,-140.52 556.5,-140.52"/>
<polygon fill="black" stroke="black" points="553,-140.52 556.5,-150.52 560,-140.52 553,-140.52"/>
</g>
<!-- RefreshTokenIdsStorage -->
<g id="node3" class="node">
<title>RefreshTokenIdsStorage</title>
<ellipse fill="#fdb462" stroke="black" cx="403" cy="-104" rx="107.06" ry="18"/>
<text text-anchor="middle" x="403" y="-99.8" font-family="Times,serif" font-size="14.00">RefreshTokenIdsStorage</text>
</g>
<!-- RefreshTokenIdsStorage&#45;&gt;AuthenticationModule -->
<g id="edge3" class="edge">
<title>RefreshTokenIdsStorage&#45;&gt;AuthenticationModule</title>
<path fill="none" stroke="black" d="M476.33,-117.15C476.33,-117.15 476.33,-140.69 476.33,-140.69"/>
<polygon fill="black" stroke="black" points="472.83,-140.69 476.33,-150.69 479.83,-140.69 472.83,-140.69"/>
</g>
<!-- SessionAuthenticationService -->
<g id="node4" class="node">
<title>SessionAuthenticationService</title>
<ellipse fill="#fdb462" stroke="black" cx="151" cy="-104" rx="126.78" ry="18"/>
<text text-anchor="middle" x="151" y="-99.8" font-family="Times,serif" font-size="14.00">SessionAuthenticationService</text>
</g>
<!-- SessionAuthenticationService&#45;&gt;AuthenticationModule -->
<g id="edge4" class="edge">
<title>SessionAuthenticationService&#45;&gt;AuthenticationModule</title>
<path fill="none" stroke="black" d="M151,-122.11C151,-141.34 151,-169 151,-169 151,-169 432.72,-169 432.72,-169"/>
<polygon fill="black" stroke="black" points="432.72,-172.5 442.72,-169 432.72,-165.5 432.72,-172.5"/>
</g>
</g>
</svg>
