<?xml version="1.0" encoding="UTF-8" standalone="no"?>
<!DOCTYPE svg PUBLIC "-//W3C//DTD SVG 1.1//EN"
 "http://www.w3.org/Graphics/SVG/1.1/DTD/svg11.dtd">
<!-- Generated by graphviz version 2.47.0 (20210316.0004)
 -->
<!-- Title: dependencies Pages: 1 -->
<svg width="504pt" height="211pt"
 viewBox="0.00 0.00 504.00 211.00" xmlns="http://www.w3.org/2000/svg" xmlns:xlink="http://www.w3.org/1999/xlink">
<g id="graph0" class="graph" transform="scale(1 1) rotate(0) translate(4 207)">
<title>dependencies</title>
<polygon fill="white" stroke="transparent" points="-4,4 -4,-207 500,-207 500,4 -4,4"/>
<text text-anchor="start" x="227.01" y="-42.4" font-family="Times-12" font-weight="bold" font-size="14.00">Legend</text>
<polygon fill="#ffffb3" stroke="transparent" points="14,-10 14,-30 34,-30 34,-10 14,-10"/>
<text text-anchor="start" x="37.63" y="-15.4" font-family="Times-12" font-size="14.00"> &#160;Declarations</text>
<polygon fill="#8dd3c7" stroke="transparent" points="127,-10 127,-30 147,-30 147,-10 127,-10"/>
<text text-anchor="start" x="150.73" y="-15.4" font-family="Times-12" font-size="14.00"> &#160;Module</text>
<polygon fill="#80b1d3" stroke="transparent" points="213,-10 213,-30 233,-30 233,-10 213,-10"/>
<text text-anchor="start" x="236.78" y="-15.4" font-family="Times-12" font-size="14.00"> &#160;Bootstrap</text>
<polygon fill="#fdb462" stroke="transparent" points="310,-10 310,-30 330,-30 330,-10 310,-10"/>
<text text-anchor="start" x="333.67" y="-15.4" font-family="Times-12" font-size="14.00"> &#160;Providers</text>
<polygon fill="#fb8072" stroke="transparent" points="406,-10 406,-30 426,-30 426,-10 406,-10"/>
<text text-anchor="start" x="429.73" y="-15.4" font-family="Times-12" font-size="14.00"> &#160;Exports</text>
<g id="clust1" class="cluster">
<title>cluster_IamModule</title>
<polygon fill="none" stroke="black" stroke-dasharray="1,5" points="83,-70 83,-195 413,-195 413,-70 83,-70"/>
</g>
<g id="clust3" class="cluster">
<title>cluster_IamModule_imports</title>
<polygon fill="none" stroke="black" points="91,-78 91,-130 405,-130 405,-78 91,-78"/>
</g>
<!-- AuthenticationModule -->
<g id="node1" class="node">
<title>AuthenticationModule</title>
<polygon fill="#8dd3c7" stroke="black" points="397.25,-122 394.25,-126 373.25,-126 370.25,-122 254.75,-122 254.75,-86 397.25,-86 397.25,-122"/>
<text text-anchor="middle" x="326" y="-99.8" font-family="Times,serif" font-size="14.00">AuthenticationModule</text>
</g>
<!-- IamModule -->
<g id="node3" class="node">
<title>IamModule</title>
<polygon fill="#8dd3c7" stroke="black" points="287.82,-187 284.82,-191 263.82,-191 260.82,-187 206.18,-187 206.18,-151 287.82,-151 287.82,-187"/>
<text text-anchor="middle" x="247" y="-164.8" font-family="Times,serif" font-size="14.00">IamModule</text>
</g>
<!-- AuthenticationModule&#45;&gt;IamModule -->
<g id="edge1" class="edge">
<title>AuthenticationModule&#45;&gt;IamModule</title>
<path fill="none" stroke="black" d="M271.14,-122.11C271.14,-122.11 271.14,-140.99 271.14,-140.99"/>
<polygon fill="black" stroke="black" points="267.64,-140.99 271.14,-150.99 274.64,-140.99 267.64,-140.99"/>
</g>
<!-- AuthorizationModule -->
<g id="node2" class="node">
<title>AuthorizationModule</title>
<polygon fill="#8dd3c7" stroke="black" points="236.81,-122 233.81,-126 212.81,-126 209.81,-122 99.19,-122 99.19,-86 236.81,-86 236.81,-122"/>
<text text-anchor="middle" x="168" y="-99.8" font-family="Times,serif" font-size="14.00">AuthorizationModule</text>
</g>
<!-- AuthorizationModule&#45;&gt;IamModule -->
<g id="edge2" class="edge">
<title>AuthorizationModule&#45;&gt;IamModule</title>
<path fill="none" stroke="black" d="M221.5,-122.11C221.5,-122.11 221.5,-140.99 221.5,-140.99"/>
<polygon fill="black" stroke="black" points="218,-140.99 221.5,-150.99 225,-140.99 218,-140.99"/>
</g>
</g>
</svg>
