<?xml version="1.0" encoding="UTF-8" standalone="no"?>
<!DOCTYPE svg PUBLIC "-//W3C//DTD SVG 1.1//EN"
 "http://www.w3.org/Graphics/SVG/1.1/DTD/svg11.dtd">
<!-- Generated by graphviz version 2.47.0 (20210316.0004)
 -->
<!-- Title: dependencies Pages: 1 -->
<svg width="1397pt" height="420pt"
 viewBox="0.00 0.00 1397.00 420.00" xmlns="http://www.w3.org/2000/svg" xmlns:xlink="http://www.w3.org/1999/xlink">
<g id="graph0" class="graph" transform="scale(1 1) rotate(0) translate(4 416)">
<title>dependencies</title>
<polygon fill="white" stroke="transparent" points="-4,4 -4,-416 1393,-416 1393,4 -4,4"/>
<text text-anchor="start" x="673.51" y="-42.4" font-family="Times-12" font-weight="bold" font-size="14.00">Legend</text>
<polygon fill="#ffffb3" stroke="transparent" points="460.5,-10 460.5,-30 480.5,-30 480.5,-10 460.5,-10"/>
<text text-anchor="start" x="484.13" y="-15.4" font-family="Times-12" font-size="14.00"> &#160;Declarations</text>
<polygon fill="#8dd3c7" stroke="transparent" points="573.5,-10 573.5,-30 593.5,-30 593.5,-10 573.5,-10"/>
<text text-anchor="start" x="597.23" y="-15.4" font-family="Times-12" font-size="14.00"> &#160;Module</text>
<polygon fill="#80b1d3" stroke="transparent" points="659.5,-10 659.5,-30 679.5,-30 679.5,-10 659.5,-10"/>
<text text-anchor="start" x="683.28" y="-15.4" font-family="Times-12" font-size="14.00"> &#160;Bootstrap</text>
<polygon fill="#fdb462" stroke="transparent" points="756.5,-10 756.5,-30 776.5,-30 776.5,-10 756.5,-10"/>
<text text-anchor="start" x="780.17" y="-15.4" font-family="Times-12" font-size="14.00"> &#160;Providers</text>
<polygon fill="#fb8072" stroke="transparent" points="852.5,-10 852.5,-30 872.5,-30 872.5,-10 852.5,-10"/>
<text text-anchor="start" x="876.23" y="-15.4" font-family="Times-12" font-size="14.00"> &#160;Exports</text>
<g id="clust1" class="cluster">
<title>cluster_AppModule</title>
<polygon fill="none" stroke="black" stroke-dasharray="1,5" points="932,-214 932,-404 1296,-404 1296,-214 932,-214"/>
</g>
<g id="clust3" class="cluster">
<title>cluster_AppModule_imports</title>
<polygon fill="none" stroke="black" points="1078,-222 1078,-339 1288,-339 1288,-222 1078,-222"/>
</g>
<g id="clust6" class="cluster">
<title>cluster_AppModule_providers</title>
<polygon fill="none" stroke="black" points="940,-287 940,-339 1070,-339 1070,-287 940,-287"/>
</g>
<g id="clust7" class="cluster">
<title>cluster_AuthenticationModule</title>
<polygon fill="none" stroke="black" stroke-dasharray="1,5" points="8,-70 8,-198 1203,-198 1203,-70 8,-70"/>
</g>
<g id="clust12" class="cluster">
<title>cluster_AuthenticationModule_providers</title>
<polygon fill="none" stroke="black" points="16,-78 16,-130 1195,-130 1195,-78 16,-78"/>
</g>
<g id="clust19" class="cluster">
<title>cluster_CloudModule</title>
<polygon fill="none" stroke="black" stroke-dasharray="1,5" points="796,-279 796,-347 924,-347 924,-279 796,-279"/>
</g>
<g id="clust22" class="cluster">
<title>cluster_CloudModule_exports</title>
<polygon fill="none" stroke="black" points="804,-287 804,-339 916,-339 916,-287 804,-287"/>
</g>
<g id="clust25" class="cluster">
<title>cluster_IamModule</title>
<polygon fill="none" stroke="black" stroke-dasharray="1,5" points="1211,-138 1211,-206 1381,-206 1381,-138 1211,-138"/>
</g>
<g id="clust27" class="cluster">
<title>cluster_IamModule_imports</title>
<polygon fill="none" stroke="black" points="1219,-146 1219,-198 1373,-198 1373,-146 1219,-146"/>
</g>
<!-- CloudModule -->
<g id="node1" class="node">
<title>CloudModule</title>
<polygon fill="#8dd3c7" stroke="black" points="1279.78,-266 1276.78,-270 1255.78,-270 1252.78,-266 1186.22,-266 1186.22,-230 1279.78,-230 1279.78,-266"/>
<text text-anchor="middle" x="1233" y="-243.8" font-family="Times,serif" font-size="14.00">CloudModule</text>
</g>
<!-- UsersModule -->
<g id="node3" class="node">
<title>UsersModule</title>
<polygon fill="#8dd3c7" stroke="black" points="1278.92,-331 1275.92,-335 1254.92,-335 1251.92,-331 1187.08,-331 1187.08,-295 1278.92,-295 1278.92,-331"/>
<text text-anchor="middle" x="1233" y="-308.8" font-family="Times,serif" font-size="14.00">UsersModule</text>
</g>
<!-- CloudModule&#45;&gt;UsersModule -->
<g id="edge15" class="edge">
<title>CloudModule&#45;&gt;UsersModule</title>
<path fill="none" stroke="black" d="M1248.24,-266.11C1248.24,-266.11 1248.24,-284.99 1248.24,-284.99"/>
<polygon fill="black" stroke="black" points="1244.74,-284.99 1248.24,-294.99 1251.74,-284.99 1244.74,-284.99"/>
</g>
<!-- AppModule -->
<g id="node4" class="node">
<title>AppModule</title>
<polygon fill="#8dd3c7" stroke="black" points="1186.66,-396 1183.66,-400 1162.66,-400 1159.66,-396 1103.34,-396 1103.34,-360 1186.66,-360 1186.66,-396"/>
<text text-anchor="middle" x="1145" y="-373.8" font-family="Times,serif" font-size="14.00">AppModule</text>
</g>
<!-- CloudModule&#45;&gt;AppModule -->
<g id="edge1" class="edge">
<title>CloudModule&#45;&gt;AppModule</title>
<path fill="none" stroke="black" d="M1186.15,-248C1180.61,-248 1176.88,-248 1176.88,-248 1176.88,-248 1176.88,-349.92 1176.88,-349.92"/>
<polygon fill="black" stroke="black" points="1173.38,-349.92 1176.88,-359.92 1180.38,-349.92 1173.38,-349.92"/>
</g>
<!-- CloudService  -->
<g id="node13" class="node">
<title>CloudService </title>
<polygon fill="#fb8072" stroke="black" points="907.71,-331 812.29,-331 812.29,-295 907.71,-295 907.71,-331"/>
<text text-anchor="middle" x="860" y="-308.8" font-family="Times,serif" font-size="14.00">CloudService </text>
</g>
<!-- CloudModule&#45;&gt;CloudService  -->
<g id="edge11" class="edge">
<title>CloudModule&#45;&gt;CloudService </title>
<path fill="none" stroke="black" stroke-dasharray="5,2" d="M1217.76,-266.04C1217.76,-273.75 1217.76,-281 1217.76,-281 1217.76,-281 903.54,-281 903.54,-281 903.54,-281 903.54,-284.76 903.54,-284.76"/>
<polygon fill="black" stroke="black" points="900.04,-284.76 903.54,-294.76 907.04,-284.76 900.04,-284.76"/>
</g>
<!-- IamModule -->
<g id="node2" class="node">
<title>IamModule</title>
<polygon fill="#8dd3c7" stroke="black" points="1167.82,-266 1164.82,-270 1143.82,-270 1140.82,-266 1086.18,-266 1086.18,-230 1167.82,-230 1167.82,-266"/>
<text text-anchor="middle" x="1127" y="-243.8" font-family="Times,serif" font-size="14.00">IamModule</text>
</g>
<!-- IamModule&#45;&gt;AppModule -->
<g id="edge2" class="edge">
<title>IamModule&#45;&gt;AppModule</title>
<path fill="none" stroke="black" d="M1146.16,-266.08C1146.16,-266.08 1146.16,-349.66 1146.16,-349.66"/>
<polygon fill="black" stroke="black" points="1142.66,-349.66 1146.16,-359.66 1149.66,-349.66 1142.66,-349.66"/>
</g>
<!-- UsersModule&#45;&gt;AppModule -->
<g id="edge3" class="edge">
<title>UsersModule&#45;&gt;AppModule</title>
<path fill="none" stroke="black" d="M1187.01,-322C1183.62,-322 1181.5,-322 1181.5,-322 1181.5,-322 1181.5,-349.97 1181.5,-349.97"/>
<polygon fill="black" stroke="black" points="1178,-349.97 1181.5,-359.97 1185,-349.97 1178,-349.97"/>
</g>
<!-- AppService -->
<g id="node5" class="node">
<title>AppService</title>
<ellipse fill="#fdb462" stroke="black" cx="1005" cy="-313" rx="56.74" ry="18"/>
<text text-anchor="middle" x="1005" y="-308.8" font-family="Times,serif" font-size="14.00">AppService</text>
</g>
<!-- AppService&#45;&gt;AppModule -->
<g id="edge4" class="edge">
<title>AppService&#45;&gt;AppModule</title>
<path fill="none" stroke="black" d="M1061.68,-313C1092.61,-313 1124.67,-313 1124.67,-313 1124.67,-313 1124.67,-349.89 1124.67,-349.89"/>
<polygon fill="black" stroke="black" points="1121.17,-349.89 1124.67,-359.89 1128.17,-349.89 1121.17,-349.89"/>
</g>
<!-- AccessTokenStrategy -->
<g id="node6" class="node">
<title>AccessTokenStrategy</title>
<ellipse fill="#fdb462" stroke="black" cx="804" cy="-104" rx="95.46" ry="18"/>
<text text-anchor="middle" x="804" y="-99.8" font-family="Times,serif" font-size="14.00">AccessTokenStrategy</text>
</g>
<!-- AuthenticationModule -->
<g id="node12" class="node">
<title>AuthenticationModule</title>
<polygon fill="#8dd3c7" stroke="black" points="875.25,-190 872.25,-194 851.25,-194 848.25,-190 732.75,-190 732.75,-154 875.25,-154 875.25,-190"/>
<text text-anchor="middle" x="804" y="-167.8" font-family="Times,serif" font-size="14.00">AuthenticationModule</text>
</g>
<!-- AccessTokenStrategy&#45;&gt;AuthenticationModule -->
<g id="edge5" class="edge">
<title>AccessTokenStrategy&#45;&gt;AuthenticationModule</title>
<path fill="none" stroke="black" d="M804,-122.22C804,-122.22 804,-143.73 804,-143.73"/>
<polygon fill="black" stroke="black" points="800.5,-143.73 804,-153.73 807.5,-143.73 800.5,-143.73"/>
</g>
<!-- AuthenticationService -->
<g id="node7" class="node">
<title>AuthenticationService</title>
<ellipse fill="#fdb462" stroke="black" cx="593" cy="-104" rx="97.27" ry="18"/>
<text text-anchor="middle" x="593" y="-99.8" font-family="Times,serif" font-size="14.00">AuthenticationService</text>
</g>
<!-- AuthenticationService&#45;&gt;AuthenticationModule -->
<g id="edge6" class="edge">
<title>AuthenticationService&#45;&gt;AuthenticationModule</title>
<path fill="none" stroke="black" d="M593,-122.02C593,-139.37 593,-163 593,-163 593,-163 722.57,-163 722.57,-163"/>
<polygon fill="black" stroke="black" points="722.57,-166.5 732.57,-163 722.56,-159.5 722.57,-166.5"/>
</g>
<!-- CloudService -->
<g id="node8" class="node">
<title>CloudService</title>
<ellipse fill="#fdb462" stroke="black" cx="981" cy="-104" rx="63.7" ry="18"/>
<text text-anchor="middle" x="981" y="-99.8" font-family="Times,serif" font-size="14.00">CloudService</text>
</g>
<!-- CloudService&#45;&gt;CloudModule -->
<g id="edge12" class="edge">
<title>CloudService&#45;&gt;CloudModule</title>
<path fill="none" stroke="black" d="M996.49,-121.8C996.49,-130.02 996.49,-138 996.49,-138 996.49,-138 1207.16,-138 1207.16,-138 1207.16,-138 1207.16,-219.84 1207.16,-219.84"/>
<polygon fill="black" stroke="black" points="1203.66,-219.84 1207.16,-229.84 1210.66,-219.84 1203.66,-219.84"/>
</g>
<!-- CloudService&#45;&gt;AuthenticationModule -->
<g id="edge7" class="edge">
<title>CloudService&#45;&gt;AuthenticationModule</title>
<path fill="none" stroke="black" d="M932.89,-115.94C932.89,-133.18 932.89,-163 932.89,-163 932.89,-163 885.61,-163 885.61,-163"/>
<polygon fill="black" stroke="black" points="885.61,-159.5 875.61,-163 885.61,-166.5 885.61,-159.5"/>
</g>
<!-- RefreshTokenIdsStorage -->
<g id="node9" class="node">
<title>RefreshTokenIdsStorage</title>
<ellipse fill="#fdb462" stroke="black" cx="131" cy="-104" rx="107.06" ry="18"/>
<text text-anchor="middle" x="131" y="-99.8" font-family="Times,serif" font-size="14.00">RefreshTokenIdsStorage</text>
</g>
<!-- RefreshTokenIdsStorage&#45;&gt;AuthenticationModule -->
<g id="edge8" class="edge">
<title>RefreshTokenIdsStorage&#45;&gt;AuthenticationModule</title>
<path fill="none" stroke="black" d="M131,-122.25C131,-145.02 131,-181 131,-181 131,-181 722.61,-181 722.61,-181"/>
<polygon fill="black" stroke="black" points="722.61,-184.5 732.61,-181 722.61,-177.5 722.61,-184.5"/>
</g>
<!-- TfaAuthenticationService -->
<g id="node10" class="node">
<title>TfaAuthenticationService</title>
<ellipse fill="#fdb462" stroke="black" cx="367" cy="-104" rx="110.57" ry="18"/>
<text text-anchor="middle" x="367" y="-99.8" font-family="Times,serif" font-size="14.00">TfaAuthenticationService</text>
</g>
<!-- TfaAuthenticationService&#45;&gt;AuthenticationModule -->
<g id="edge9" class="edge">
<title>TfaAuthenticationService&#45;&gt;AuthenticationModule</title>
<path fill="none" stroke="black" d="M367,-122.22C367,-142.37 367,-172 367,-172 367,-172 722.33,-172 722.33,-172"/>
<polygon fill="black" stroke="black" points="722.33,-175.5 732.33,-172 722.33,-168.5 722.33,-175.5"/>
</g>
<!-- UsersService -->
<g id="node11" class="node">
<title>UsersService</title>
<ellipse fill="#fdb462" stroke="black" cx="1125" cy="-104" rx="61.95" ry="18"/>
<text text-anchor="middle" x="1125" y="-99.8" font-family="Times,serif" font-size="14.00">UsersService</text>
</g>
<!-- UsersService&#45;&gt;UsersModule -->
<g id="edge16" class="edge">
<title>UsersService&#45;&gt;UsersModule</title>
<path fill="none" stroke="black" d="M1172.27,-115.91C1172.27,-158.97 1172.27,-304 1172.27,-304 1172.27,-304 1177.28,-304 1177.28,-304"/>
<polygon fill="black" stroke="black" points="1177.28,-307.5 1187.28,-304 1177.28,-300.5 1177.28,-307.5"/>
</g>
<!-- UsersService&#45;&gt;AuthenticationModule -->
<g id="edge10" class="edge">
<title>UsersService&#45;&gt;AuthenticationModule</title>
<path fill="none" stroke="black" d="M1074.68,-114.62C1074.68,-133.75 1074.68,-172 1074.68,-172 1074.68,-172 885.47,-172 885.47,-172"/>
<polygon fill="black" stroke="black" points="885.47,-168.5 875.47,-172 885.47,-175.5 885.47,-168.5"/>
</g>
<!-- AuthenticationModule&#45;&gt;IamModule -->
<g id="edge13" class="edge">
<title>AuthenticationModule&#45;&gt;IamModule</title>
<path fill="none" stroke="black" d="M843.76,-190.01C843.76,-212.49 843.76,-248 843.76,-248 843.76,-248 1076.12,-248 1076.12,-248"/>
<polygon fill="black" stroke="black" points="1076.12,-251.5 1086.12,-248 1076.12,-244.5 1076.12,-251.5"/>
</g>
<!-- AuthorizationModule -->
<g id="node14" class="node">
<title>AuthorizationModule</title>
<polygon fill="#8dd3c7" stroke="black" points="1364.81,-190 1361.81,-194 1340.81,-194 1337.81,-190 1227.19,-190 1227.19,-154 1364.81,-154 1364.81,-190"/>
<text text-anchor="middle" x="1296" y="-167.8" font-family="Times,serif" font-size="14.00">AuthorizationModule</text>
</g>
<!-- AuthorizationModule&#45;&gt;IamModule -->
<g id="edge14" class="edge">
<title>AuthorizationModule&#45;&gt;IamModule</title>
<path fill="none" stroke="black" d="M1227.26,-181C1180.47,-181 1127,-181 1127,-181 1127,-181 1127,-219.69 1127,-219.69"/>
<polygon fill="black" stroke="black" points="1123.5,-219.69 1127,-229.69 1130.5,-219.69 1123.5,-219.69"/>
</g>
</g>
</svg>
