<?xml version="1.0" encoding="UTF-8" standalone="no"?>
<!DOCTYPE svg PUBLIC "-//W3C//DTD SVG 1.1//EN"
 "http://www.w3.org/Graphics/SVG/1.1/DTD/svg11.dtd">
<!-- Generated by graphviz version 2.47.0 (20210316.0004)
 -->
<!-- Title: dependencies Pages: 1 -->
<svg width="1073pt" height="344pt"
 viewBox="0.00 0.00 1073.00 344.00" xmlns="http://www.w3.org/2000/svg" xmlns:xlink="http://www.w3.org/1999/xlink">
<g id="graph0" class="graph" transform="scale(1 1) rotate(0) translate(4 340)">
<title>dependencies</title>
<polygon fill="white" stroke="transparent" points="-4,4 -4,-340 1069,-340 1069,4 -4,4"/>
<text text-anchor="start" x="511.51" y="-42.4" font-family="Times-12" font-weight="bold" font-size="14.00">Legend</text>
<polygon fill="#ffffb3" stroke="transparent" points="298.5,-10 298.5,-30 318.5,-30 318.5,-10 298.5,-10"/>
<text text-anchor="start" x="322.13" y="-15.4" font-family="Times-12" font-size="14.00"> &#160;Declarations</text>
<polygon fill="#8dd3c7" stroke="transparent" points="411.5,-10 411.5,-30 431.5,-30 431.5,-10 411.5,-10"/>
<text text-anchor="start" x="435.23" y="-15.4" font-family="Times-12" font-size="14.00"> &#160;Module</text>
<polygon fill="#80b1d3" stroke="transparent" points="497.5,-10 497.5,-30 517.5,-30 517.5,-10 497.5,-10"/>
<text text-anchor="start" x="521.28" y="-15.4" font-family="Times-12" font-size="14.00"> &#160;Bootstrap</text>
<polygon fill="#fdb462" stroke="transparent" points="594.5,-10 594.5,-30 614.5,-30 614.5,-10 594.5,-10"/>
<text text-anchor="start" x="618.17" y="-15.4" font-family="Times-12" font-size="14.00"> &#160;Providers</text>
<polygon fill="#fb8072" stroke="transparent" points="690.5,-10 690.5,-30 710.5,-30 710.5,-10 690.5,-10"/>
<text text-anchor="start" x="714.23" y="-15.4" font-family="Times-12" font-size="14.00"> &#160;Exports</text>
<g id="clust1" class="cluster">
<title>cluster_AppModule</title>
<polygon fill="none" stroke="black" stroke-dasharray="1,5" points="591,-203 591,-328 952,-328 952,-203 591,-203"/>
</g>
<g id="clust3" class="cluster">
<title>cluster_AppModule_imports</title>
<polygon fill="none" stroke="black" points="737,-211 737,-263 944,-263 944,-211 737,-211"/>
</g>
<g id="clust6" class="cluster">
<title>cluster_AppModule_providers</title>
<polygon fill="none" stroke="black" points="599,-211 599,-263 729,-263 729,-211 599,-211"/>
</g>
<g id="clust7" class="cluster">
<title>cluster_AuthenticationModule</title>
<polygon fill="none" stroke="black" stroke-dasharray="1,5" points="8,-70 8,-195 1057,-195 1057,-70 8,-70"/>
</g>
<g id="clust12" class="cluster">
<title>cluster_AuthenticationModule_providers</title>
<polygon fill="none" stroke="black" points="16,-78 16,-130 1049,-130 1049,-78 16,-78"/>
</g>
<!-- IamModule -->
<g id="node1" class="node">
<title>IamModule</title>
<polygon fill="#8dd3c7" stroke="black" points="826.82,-255 823.82,-259 802.82,-259 799.82,-255 745.18,-255 745.18,-219 826.82,-219 826.82,-255"/>
<text text-anchor="middle" x="786" y="-232.8" font-family="Times,serif" font-size="14.00">IamModule</text>
</g>
<!-- AppModule -->
<g id="node3" class="node">
<title>AppModule</title>
<polygon fill="#8dd3c7" stroke="black" points="827.66,-320 824.66,-324 803.66,-324 800.66,-320 744.34,-320 744.34,-284 827.66,-284 827.66,-320"/>
<text text-anchor="middle" x="786" y="-297.8" font-family="Times,serif" font-size="14.00">AppModule</text>
</g>
<!-- IamModule&#45;&gt;AppModule -->
<g id="edge1" class="edge">
<title>IamModule&#45;&gt;AppModule</title>
<path fill="none" stroke="black" d="M786,-255.11C786,-255.11 786,-273.99 786,-273.99"/>
<polygon fill="black" stroke="black" points="782.5,-273.99 786,-283.99 789.5,-273.99 782.5,-273.99"/>
</g>
<!-- UsersModule -->
<g id="node2" class="node">
<title>UsersModule</title>
<polygon fill="#8dd3c7" stroke="black" points="935.92,-255 932.92,-259 911.92,-259 908.92,-255 844.08,-255 844.08,-219 935.92,-219 935.92,-255"/>
<text text-anchor="middle" x="890" y="-232.8" font-family="Times,serif" font-size="14.00">UsersModule</text>
</g>
<!-- UsersModule&#45;&gt;AppModule -->
<g id="edge2" class="edge">
<title>UsersModule&#45;&gt;AppModule</title>
<path fill="none" stroke="black" d="M890,-255.11C890,-274.34 890,-302 890,-302 890,-302 837.7,-302 837.7,-302"/>
<polygon fill="black" stroke="black" points="837.7,-298.5 827.7,-302 837.7,-305.5 837.7,-298.5"/>
</g>
<!-- AppService -->
<g id="node4" class="node">
<title>AppService</title>
<ellipse fill="#fdb462" stroke="black" cx="664" cy="-237" rx="56.74" ry="18"/>
<text text-anchor="middle" x="664" y="-232.8" font-family="Times,serif" font-size="14.00">AppService</text>
</g>
<!-- AppService&#45;&gt;AppModule -->
<g id="edge3" class="edge">
<title>AppService&#45;&gt;AppModule</title>
<path fill="none" stroke="black" d="M664,-255.11C664,-274.34 664,-302 664,-302 664,-302 734.01,-302 734.01,-302"/>
<polygon fill="black" stroke="black" points="734.01,-305.5 744.01,-302 734.01,-298.5 734.01,-305.5"/>
</g>
<!-- AccessTokenStrategy -->
<g id="node5" class="node">
<title>AccessTokenStrategy</title>
<ellipse fill="#fdb462" stroke="black" cx="804" cy="-104" rx="95.46" ry="18"/>
<text text-anchor="middle" x="804" y="-99.8" font-family="Times,serif" font-size="14.00">AccessTokenStrategy</text>
</g>
<!-- AuthenticationModule -->
<g id="node10" class="node">
<title>AuthenticationModule</title>
<polygon fill="#8dd3c7" stroke="black" points="769.25,-187 766.25,-191 745.25,-191 742.25,-187 626.75,-187 626.75,-151 769.25,-151 769.25,-187"/>
<text text-anchor="middle" x="698" y="-164.8" font-family="Times,serif" font-size="14.00">AuthenticationModule</text>
</g>
<!-- AccessTokenStrategy&#45;&gt;AuthenticationModule -->
<g id="edge4" class="edge">
<title>AccessTokenStrategy&#45;&gt;AuthenticationModule</title>
<path fill="none" stroke="black" d="M739.07,-117.47C739.07,-117.47 739.07,-140.86 739.07,-140.86"/>
<polygon fill="black" stroke="black" points="735.57,-140.86 739.07,-150.86 742.57,-140.86 735.57,-140.86"/>
</g>
<!-- AuthenticationService -->
<g id="node6" class="node">
<title>AuthenticationService</title>
<ellipse fill="#fdb462" stroke="black" cx="593" cy="-104" rx="97.27" ry="18"/>
<text text-anchor="middle" x="593" y="-99.8" font-family="Times,serif" font-size="14.00">AuthenticationService</text>
</g>
<!-- AuthenticationService&#45;&gt;AuthenticationModule -->
<g id="edge5" class="edge">
<title>AuthenticationService&#45;&gt;AuthenticationModule</title>
<path fill="none" stroke="black" d="M658.5,-117.47C658.5,-117.47 658.5,-140.86 658.5,-140.86"/>
<polygon fill="black" stroke="black" points="655,-140.86 658.5,-150.86 662,-140.86 655,-140.86"/>
</g>
<!-- RefreshTokenIdsStorage -->
<g id="node7" class="node">
<title>RefreshTokenIdsStorage</title>
<ellipse fill="#fdb462" stroke="black" cx="371" cy="-104" rx="107.06" ry="18"/>
<text text-anchor="middle" x="371" y="-99.8" font-family="Times,serif" font-size="14.00">RefreshTokenIdsStorage</text>
</g>
<!-- RefreshTokenIdsStorage&#45;&gt;AuthenticationModule -->
<g id="edge6" class="edge">
<title>RefreshTokenIdsStorage&#45;&gt;AuthenticationModule</title>
<path fill="none" stroke="black" d="M371,-122.02C371,-139.37 371,-163 371,-163 371,-163 616.64,-163 616.64,-163"/>
<polygon fill="black" stroke="black" points="616.64,-166.5 626.64,-163 616.64,-159.5 616.64,-166.5"/>
</g>
<!-- TfaAuthenticationService -->
<g id="node8" class="node">
<title>TfaAuthenticationService</title>
<ellipse fill="#fdb462" stroke="black" cx="135" cy="-104" rx="110.57" ry="18"/>
<text text-anchor="middle" x="135" y="-99.8" font-family="Times,serif" font-size="14.00">TfaAuthenticationService</text>
</g>
<!-- TfaAuthenticationService&#45;&gt;AuthenticationModule -->
<g id="edge7" class="edge">
<title>TfaAuthenticationService&#45;&gt;AuthenticationModule</title>
<path fill="none" stroke="black" d="M135,-122.28C135,-143.32 135,-175 135,-175 135,-175 616.7,-175 616.7,-175"/>
<polygon fill="black" stroke="black" points="616.7,-178.5 626.7,-175 616.7,-171.5 616.7,-178.5"/>
</g>
<!-- UsersService -->
<g id="node9" class="node">
<title>UsersService</title>
<ellipse fill="#fdb462" stroke="black" cx="979" cy="-104" rx="61.95" ry="18"/>
<text text-anchor="middle" x="979" y="-99.8" font-family="Times,serif" font-size="14.00">UsersService</text>
</g>
<!-- UsersService&#45;&gt;UsersModule -->
<g id="edge10" class="edge">
<title>UsersService&#45;&gt;UsersModule</title>
<path fill="none" stroke="black" d="M929.48,-114.88C929.48,-114.88 929.48,-208.87 929.48,-208.87"/>
<polygon fill="black" stroke="black" points="925.98,-208.87 929.48,-218.87 932.98,-208.87 925.98,-208.87"/>
</g>
<!-- UsersService&#45;&gt;AuthenticationModule -->
<g id="edge8" class="edge">
<title>UsersService&#45;&gt;AuthenticationModule</title>
<path fill="none" stroke="black" d="M923.25,-111.97C923.25,-129.33 923.25,-169 923.25,-169 923.25,-169 779.27,-169 779.27,-169"/>
<polygon fill="black" stroke="black" points="779.27,-165.5 769.27,-169 779.27,-172.5 779.27,-165.5"/>
</g>
<!-- AuthenticationModule&#45;&gt;IamModule -->
<g id="edge9" class="edge">
<title>AuthenticationModule&#45;&gt;IamModule</title>
<path fill="none" stroke="black" d="M757.36,-187.22C757.36,-187.22 757.36,-208.73 757.36,-208.73"/>
<polygon fill="black" stroke="black" points="753.86,-208.73 757.36,-218.73 760.86,-208.73 753.86,-208.73"/>
</g>
</g>
</svg>
