<?xml version="1.0" encoding="UTF-8" standalone="no"?>
<!DOCTYPE svg PUBLIC "-//W3C//DTD SVG 1.1//EN"
 "http://www.w3.org/Graphics/SVG/1.1/DTD/svg11.dtd">
<!-- Generated by graphviz version 2.47.0 (20210316.0004)
 -->
<!-- Title: dependencies Pages: 1 -->
<svg width="623pt" height="355pt"
 viewBox="0.00 0.00 623.00 355.00" xmlns="http://www.w3.org/2000/svg" xmlns:xlink="http://www.w3.org/1999/xlink">
<g id="graph0" class="graph" transform="scale(1 1) rotate(0) translate(4 351)">
<title>dependencies</title>
<polygon fill="white" stroke="transparent" points="-4,4 -4,-351 619,-351 619,4 -4,4"/>
<text text-anchor="start" x="286.51" y="-42.4" font-family="Times-12" font-weight="bold" font-size="14.00">Legend</text>
<polygon fill="#ffffb3" stroke="transparent" points="73.5,-10 73.5,-30 93.5,-30 93.5,-10 73.5,-10"/>
<text text-anchor="start" x="97.13" y="-15.4" font-family="Times-12" font-size="14.00"> &#160;Declarations</text>
<polygon fill="#8dd3c7" stroke="transparent" points="186.5,-10 186.5,-30 206.5,-30 206.5,-10 186.5,-10"/>
<text text-anchor="start" x="210.23" y="-15.4" font-family="Times-12" font-size="14.00"> &#160;Module</text>
<polygon fill="#80b1d3" stroke="transparent" points="272.5,-10 272.5,-30 292.5,-30 292.5,-10 272.5,-10"/>
<text text-anchor="start" x="296.28" y="-15.4" font-family="Times-12" font-size="14.00"> &#160;Bootstrap</text>
<polygon fill="#fdb462" stroke="transparent" points="369.5,-10 369.5,-30 389.5,-30 389.5,-10 369.5,-10"/>
<text text-anchor="start" x="393.17" y="-15.4" font-family="Times-12" font-size="14.00"> &#160;Providers</text>
<polygon fill="#fb8072" stroke="transparent" points="465.5,-10 465.5,-30 485.5,-30 485.5,-10 465.5,-10"/>
<text text-anchor="start" x="489.23" y="-15.4" font-family="Times-12" font-size="14.00"> &#160;Exports</text>
<g id="clust1" class="cluster">
<title>cluster_AppModule</title>
<polygon fill="none" stroke="black" stroke-dasharray="1,5" points="183,-214 183,-339 544,-339 544,-214 183,-214"/>
</g>
<g id="clust3" class="cluster">
<title>cluster_AppModule_imports</title>
<polygon fill="none" stroke="black" points="329,-222 329,-274 536,-274 536,-222 329,-222"/>
</g>
<g id="clust6" class="cluster">
<title>cluster_AppModule_providers</title>
<polygon fill="none" stroke="black" points="191,-222 191,-274 321,-274 321,-222 191,-222"/>
</g>
<g id="clust7" class="cluster">
<title>cluster_AuthenticationModule</title>
<polygon fill="none" stroke="black" stroke-dasharray="1,5" points="8,-70 8,-198 443,-198 443,-70 8,-70"/>
</g>
<g id="clust12" class="cluster">
<title>cluster_AuthenticationModule_providers</title>
<polygon fill="none" stroke="black" points="16,-78 16,-130 435,-130 435,-78 16,-78"/>
</g>
<g id="clust19" class="cluster">
<title>cluster_UsersModule</title>
<polygon fill="none" stroke="black" stroke-dasharray="1,5" points="451,-138 451,-206 607,-206 607,-138 451,-138"/>
</g>
<g id="clust24" class="cluster">
<title>cluster_UsersModule_providers</title>
<polygon fill="none" stroke="black" points="459,-146 459,-198 599,-198 599,-146 459,-146"/>
</g>
<!-- IamModule -->
<g id="node1" class="node">
<title>IamModule</title>
<polygon fill="#8dd3c7" stroke="black" points="418.82,-266 415.82,-270 394.82,-270 391.82,-266 337.18,-266 337.18,-230 418.82,-230 418.82,-266"/>
<text text-anchor="middle" x="378" y="-243.8" font-family="Times,serif" font-size="14.00">IamModule</text>
</g>
<!-- AppModule -->
<g id="node3" class="node">
<title>AppModule</title>
<polygon fill="#8dd3c7" stroke="black" points="419.66,-331 416.66,-335 395.66,-335 392.66,-331 336.34,-331 336.34,-295 419.66,-295 419.66,-331"/>
<text text-anchor="middle" x="378" y="-308.8" font-family="Times,serif" font-size="14.00">AppModule</text>
</g>
<!-- IamModule&#45;&gt;AppModule -->
<g id="edge1" class="edge">
<title>IamModule&#45;&gt;AppModule</title>
<path fill="none" stroke="black" d="M378,-266.11C378,-266.11 378,-284.99 378,-284.99"/>
<polygon fill="black" stroke="black" points="374.5,-284.99 378,-294.99 381.5,-284.99 374.5,-284.99"/>
</g>
<!-- UsersModule -->
<g id="node2" class="node">
<title>UsersModule</title>
<polygon fill="#8dd3c7" stroke="black" points="527.92,-266 524.92,-270 503.92,-270 500.92,-266 436.08,-266 436.08,-230 527.92,-230 527.92,-266"/>
<text text-anchor="middle" x="482" y="-243.8" font-family="Times,serif" font-size="14.00">UsersModule</text>
</g>
<!-- UsersModule&#45;&gt;AppModule -->
<g id="edge2" class="edge">
<title>UsersModule&#45;&gt;AppModule</title>
<path fill="none" stroke="black" d="M482,-266.11C482,-285.34 482,-313 482,-313 482,-313 429.7,-313 429.7,-313"/>
<polygon fill="black" stroke="black" points="429.7,-309.5 419.7,-313 429.7,-316.5 429.7,-309.5"/>
</g>
<!-- AppService -->
<g id="node4" class="node">
<title>AppService</title>
<ellipse fill="#fdb462" stroke="black" cx="256" cy="-248" rx="56.74" ry="18"/>
<text text-anchor="middle" x="256" y="-243.8" font-family="Times,serif" font-size="14.00">AppService</text>
</g>
<!-- AppService&#45;&gt;AppModule -->
<g id="edge3" class="edge">
<title>AppService&#45;&gt;AppModule</title>
<path fill="none" stroke="black" d="M256,-266.11C256,-285.34 256,-313 256,-313 256,-313 326.01,-313 326.01,-313"/>
<polygon fill="black" stroke="black" points="326.01,-316.5 336.01,-313 326.01,-309.5 326.01,-316.5"/>
</g>
<!-- AccessTokenStrategy -->
<g id="node5" class="node">
<title>AccessTokenStrategy</title>
<ellipse fill="#fdb462" stroke="black" cx="332" cy="-104" rx="95.46" ry="18"/>
<text text-anchor="middle" x="332" y="-99.8" font-family="Times,serif" font-size="14.00">AccessTokenStrategy</text>
</g>
<!-- AuthenticationModule -->
<g id="node7" class="node">
<title>AuthenticationModule</title>
<polygon fill="#8dd3c7" stroke="black" points="403.25,-190 400.25,-194 379.25,-194 376.25,-190 260.75,-190 260.75,-154 403.25,-154 403.25,-190"/>
<text text-anchor="middle" x="332" y="-167.8" font-family="Times,serif" font-size="14.00">AuthenticationModule</text>
</g>
<!-- AccessTokenStrategy&#45;&gt;AuthenticationModule -->
<g id="edge4" class="edge">
<title>AccessTokenStrategy&#45;&gt;AuthenticationModule</title>
<path fill="none" stroke="black" d="M332,-122.22C332,-122.22 332,-143.73 332,-143.73"/>
<polygon fill="black" stroke="black" points="328.5,-143.73 332,-153.73 335.5,-143.73 328.5,-143.73"/>
</g>
<!-- AuthenticationService -->
<g id="node6" class="node">
<title>AuthenticationService</title>
<ellipse fill="#fdb462" stroke="black" cx="121" cy="-104" rx="97.27" ry="18"/>
<text text-anchor="middle" x="121" y="-99.8" font-family="Times,serif" font-size="14.00">AuthenticationService</text>
</g>
<!-- AuthenticationService&#45;&gt;AuthenticationModule -->
<g id="edge5" class="edge">
<title>AuthenticationService&#45;&gt;AuthenticationModule</title>
<path fill="none" stroke="black" d="M208.88,-111.8C208.88,-129.66 208.88,-172 208.88,-172 208.88,-172 250.74,-172 250.74,-172"/>
<polygon fill="black" stroke="black" points="250.74,-175.5 260.74,-172 250.74,-168.5 250.74,-175.5"/>
</g>
<!-- AuthenticationModule&#45;&gt;IamModule -->
<g id="edge6" class="edge">
<title>AuthenticationModule&#45;&gt;IamModule</title>
<path fill="none" stroke="black" d="M370.36,-190.01C370.36,-190.01 370.36,-219.85 370.36,-219.85"/>
<polygon fill="black" stroke="black" points="366.86,-219.85 370.36,-229.85 373.86,-219.85 366.86,-219.85"/>
</g>
<!-- UsersService -->
<g id="node8" class="node">
<title>UsersService</title>
<ellipse fill="#fdb462" stroke="black" cx="529" cy="-172" rx="61.95" ry="18"/>
<text text-anchor="middle" x="529" y="-167.8" font-family="Times,serif" font-size="14.00">UsersService</text>
</g>
<!-- UsersService&#45;&gt;UsersModule -->
<g id="edge7" class="edge">
<title>UsersService&#45;&gt;UsersModule</title>
<path fill="none" stroke="black" d="M497.37,-187.75C497.37,-187.75 497.37,-219.87 497.37,-219.87"/>
<polygon fill="black" stroke="black" points="493.87,-219.87 497.37,-229.87 500.87,-219.87 493.87,-219.87"/>
</g>
</g>
</svg>
