<?xml version="1.0" encoding="UTF-8" standalone="no"?>
<!DOCTYPE svg PUBLIC "-//W3C//DTD SVG 1.1//EN"
 "http://www.w3.org/Graphics/SVG/1.1/DTD/svg11.dtd">
<!-- Generated by graphviz version 2.47.0 (20210316.0004)
 -->
<!-- Title: dependencies Pages: 1 -->
<svg width="1127pt" height="355pt"
 viewBox="0.00 0.00 1127.00 355.00" xmlns="http://www.w3.org/2000/svg" xmlns:xlink="http://www.w3.org/1999/xlink">
<g id="graph0" class="graph" transform="scale(1 1) rotate(0) translate(4 351)">
<title>dependencies</title>
<polygon fill="white" stroke="transparent" points="-4,4 -4,-351 1123,-351 1123,4 -4,4"/>
<text text-anchor="start" x="538.51" y="-42.4" font-family="Times-12" font-weight="bold" font-size="14.00">Legend</text>
<polygon fill="#ffffb3" stroke="transparent" points="325.5,-10 325.5,-30 345.5,-30 345.5,-10 325.5,-10"/>
<text text-anchor="start" x="349.13" y="-15.4" font-family="Times-12" font-size="14.00"> &#160;Declarations</text>
<polygon fill="#8dd3c7" stroke="transparent" points="438.5,-10 438.5,-30 458.5,-30 458.5,-10 438.5,-10"/>
<text text-anchor="start" x="462.23" y="-15.4" font-family="Times-12" font-size="14.00"> &#160;Module</text>
<polygon fill="#80b1d3" stroke="transparent" points="524.5,-10 524.5,-30 544.5,-30 544.5,-10 524.5,-10"/>
<text text-anchor="start" x="548.28" y="-15.4" font-family="Times-12" font-size="14.00"> &#160;Bootstrap</text>
<polygon fill="#fdb462" stroke="transparent" points="621.5,-10 621.5,-30 641.5,-30 641.5,-10 621.5,-10"/>
<text text-anchor="start" x="645.17" y="-15.4" font-family="Times-12" font-size="14.00"> &#160;Providers</text>
<polygon fill="#fb8072" stroke="transparent" points="717.5,-10 717.5,-30 737.5,-30 737.5,-10 717.5,-10"/>
<text text-anchor="start" x="741.23" y="-15.4" font-family="Times-12" font-size="14.00"> &#160;Exports</text>
<g id="clust1" class="cluster">
<title>cluster_AppModule</title>
<polygon fill="none" stroke="black" stroke-dasharray="1,5" points="582,-214 582,-339 943,-339 943,-214 582,-214"/>
</g>
<g id="clust3" class="cluster">
<title>cluster_AppModule_imports</title>
<polygon fill="none" stroke="black" points="728,-222 728,-274 935,-274 935,-222 728,-222"/>
</g>
<g id="clust6" class="cluster">
<title>cluster_AppModule_providers</title>
<polygon fill="none" stroke="black" points="590,-222 590,-274 720,-274 720,-222 590,-222"/>
</g>
<g id="clust7" class="cluster">
<title>cluster_AuthenticationModule</title>
<polygon fill="none" stroke="black" stroke-dasharray="1,5" points="8,-70 8,-198 947,-198 947,-70 8,-70"/>
</g>
<g id="clust12" class="cluster">
<title>cluster_AuthenticationModule_providers</title>
<polygon fill="none" stroke="black" points="16,-78 16,-130 939,-130 939,-78 16,-78"/>
</g>
<g id="clust19" class="cluster">
<title>cluster_UsersModule</title>
<polygon fill="none" stroke="black" stroke-dasharray="1,5" points="955,-138 955,-206 1111,-206 1111,-138 955,-138"/>
</g>
<g id="clust24" class="cluster">
<title>cluster_UsersModule_providers</title>
<polygon fill="none" stroke="black" points="963,-146 963,-198 1103,-198 1103,-146 963,-146"/>
</g>
<!-- IamModule -->
<g id="node1" class="node">
<title>IamModule</title>
<polygon fill="#8dd3c7" stroke="black" points="817.82,-266 814.82,-270 793.82,-270 790.82,-266 736.18,-266 736.18,-230 817.82,-230 817.82,-266"/>
<text text-anchor="middle" x="777" y="-243.8" font-family="Times,serif" font-size="14.00">IamModule</text>
</g>
<!-- AppModule -->
<g id="node3" class="node">
<title>AppModule</title>
<polygon fill="#8dd3c7" stroke="black" points="818.66,-331 815.66,-335 794.66,-335 791.66,-331 735.34,-331 735.34,-295 818.66,-295 818.66,-331"/>
<text text-anchor="middle" x="777" y="-308.8" font-family="Times,serif" font-size="14.00">AppModule</text>
</g>
<!-- IamModule&#45;&gt;AppModule -->
<g id="edge1" class="edge">
<title>IamModule&#45;&gt;AppModule</title>
<path fill="none" stroke="black" d="M777,-266.11C777,-266.11 777,-284.99 777,-284.99"/>
<polygon fill="black" stroke="black" points="773.5,-284.99 777,-294.99 780.5,-284.99 773.5,-284.99"/>
</g>
<!-- UsersModule -->
<g id="node2" class="node">
<title>UsersModule</title>
<polygon fill="#8dd3c7" stroke="black" points="926.92,-266 923.92,-270 902.92,-270 899.92,-266 835.08,-266 835.08,-230 926.92,-230 926.92,-266"/>
<text text-anchor="middle" x="881" y="-243.8" font-family="Times,serif" font-size="14.00">UsersModule</text>
</g>
<!-- UsersModule&#45;&gt;AppModule -->
<g id="edge2" class="edge">
<title>UsersModule&#45;&gt;AppModule</title>
<path fill="none" stroke="black" d="M881,-266.11C881,-285.34 881,-313 881,-313 881,-313 828.7,-313 828.7,-313"/>
<polygon fill="black" stroke="black" points="828.7,-309.5 818.7,-313 828.7,-316.5 828.7,-309.5"/>
</g>
<!-- AppService -->
<g id="node4" class="node">
<title>AppService</title>
<ellipse fill="#fdb462" stroke="black" cx="655" cy="-248" rx="56.74" ry="18"/>
<text text-anchor="middle" x="655" y="-243.8" font-family="Times,serif" font-size="14.00">AppService</text>
</g>
<!-- AppService&#45;&gt;AppModule -->
<g id="edge3" class="edge">
<title>AppService&#45;&gt;AppModule</title>
<path fill="none" stroke="black" d="M655,-266.11C655,-285.34 655,-313 655,-313 655,-313 725.01,-313 725.01,-313"/>
<polygon fill="black" stroke="black" points="725.01,-316.5 735.01,-313 725.01,-309.5 725.01,-316.5"/>
</g>
<!-- AccessTokenStrategy -->
<g id="node5" class="node">
<title>AccessTokenStrategy</title>
<ellipse fill="#fdb462" stroke="black" cx="836" cy="-104" rx="95.46" ry="18"/>
<text text-anchor="middle" x="836" y="-99.8" font-family="Times,serif" font-size="14.00">AccessTokenStrategy</text>
</g>
<!-- AuthenticationModule -->
<g id="node9" class="node">
<title>AuthenticationModule</title>
<polygon fill="#8dd3c7" stroke="black" points="696.25,-190 693.25,-194 672.25,-194 669.25,-190 553.75,-190 553.75,-154 696.25,-154 696.25,-190"/>
<text text-anchor="middle" x="625" y="-167.8" font-family="Times,serif" font-size="14.00">AuthenticationModule</text>
</g>
<!-- AccessTokenStrategy&#45;&gt;AuthenticationModule -->
<g id="edge4" class="edge">
<title>AccessTokenStrategy&#45;&gt;AuthenticationModule</title>
<path fill="none" stroke="black" d="M766.4,-116.51C766.4,-133.83 766.4,-163 766.4,-163 766.4,-163 706.53,-163 706.53,-163"/>
<polygon fill="black" stroke="black" points="706.53,-159.5 696.53,-163 706.53,-166.5 706.53,-159.5"/>
</g>
<!-- AuthenticationService -->
<g id="node6" class="node">
<title>AuthenticationService</title>
<ellipse fill="#fdb462" stroke="black" cx="625" cy="-104" rx="97.27" ry="18"/>
<text text-anchor="middle" x="625" y="-99.8" font-family="Times,serif" font-size="14.00">AuthenticationService</text>
</g>
<!-- AuthenticationService&#45;&gt;AuthenticationModule -->
<g id="edge5" class="edge">
<title>AuthenticationService&#45;&gt;AuthenticationModule</title>
<path fill="none" stroke="black" d="M625,-122.22C625,-122.22 625,-143.73 625,-143.73"/>
<polygon fill="black" stroke="black" points="621.5,-143.73 625,-153.73 628.5,-143.73 621.5,-143.73"/>
</g>
<!-- RefreshTokenIdsStorage -->
<g id="node7" class="node">
<title>RefreshTokenIdsStorage</title>
<ellipse fill="#fdb462" stroke="black" cx="403" cy="-104" rx="107.06" ry="18"/>
<text text-anchor="middle" x="403" y="-99.8" font-family="Times,serif" font-size="14.00">RefreshTokenIdsStorage</text>
</g>
<!-- RefreshTokenIdsStorage&#45;&gt;AuthenticationModule -->
<g id="edge6" class="edge">
<title>RefreshTokenIdsStorage&#45;&gt;AuthenticationModule</title>
<path fill="none" stroke="black" d="M403,-122.27C403,-140.56 403,-166 403,-166 403,-166 543.54,-166 543.54,-166"/>
<polygon fill="black" stroke="black" points="543.54,-169.5 553.54,-166 543.54,-162.5 543.54,-169.5"/>
</g>
<!-- SessionAuthenticationService -->
<g id="node8" class="node">
<title>SessionAuthenticationService</title>
<ellipse fill="#fdb462" stroke="black" cx="151" cy="-104" rx="126.78" ry="18"/>
<text text-anchor="middle" x="151" y="-99.8" font-family="Times,serif" font-size="14.00">SessionAuthenticationService</text>
</g>
<!-- SessionAuthenticationService&#45;&gt;AuthenticationModule -->
<g id="edge7" class="edge">
<title>SessionAuthenticationService&#45;&gt;AuthenticationModule</title>
<path fill="none" stroke="black" d="M151,-122.29C151,-144.21 151,-178 151,-178 151,-178 543.52,-178 543.52,-178"/>
<polygon fill="black" stroke="black" points="543.52,-181.5 553.52,-178 543.52,-174.5 543.52,-181.5"/>
</g>
<!-- AuthenticationModule&#45;&gt;IamModule -->
<g id="edge8" class="edge">
<title>AuthenticationModule&#45;&gt;IamModule</title>
<path fill="none" stroke="black" d="M696.32,-172C741.72,-172 792.03,-172 792.03,-172 792.03,-172 792.03,-219.99 792.03,-219.99"/>
<polygon fill="black" stroke="black" points="788.53,-219.99 792.03,-229.99 795.53,-219.99 788.53,-219.99"/>
</g>
<!-- UsersService -->
<g id="node10" class="node">
<title>UsersService</title>
<ellipse fill="#fdb462" stroke="black" cx="1033" cy="-172" rx="61.95" ry="18"/>
<text text-anchor="middle" x="1033" y="-167.8" font-family="Times,serif" font-size="14.00">UsersService</text>
</g>
<!-- UsersService&#45;&gt;UsersModule -->
<g id="edge9" class="edge">
<title>UsersService&#45;&gt;UsersModule</title>
<path fill="none" stroke="black" d="M978.98,-181C935.29,-181 881,-181 881,-181 881,-181 881,-219.69 881,-219.69"/>
<polygon fill="black" stroke="black" points="877.5,-219.69 881,-229.69 884.5,-219.69 877.5,-219.69"/>
</g>
</g>
</svg>
