<?xml version="1.0" encoding="UTF-8" standalone="no"?>
<!DOCTYPE svg PUBLIC "-//W3C//DTD SVG 1.1//EN"
 "http://www.w3.org/Graphics/SVG/1.1/DTD/svg11.dtd">
<!-- Generated by graphviz version 2.47.0 (20210316.0004)
 -->
<!-- Title: dependencies Pages: 1 -->
<svg width="504pt" height="211pt"
 viewBox="0.00 0.00 504.00 211.00" xmlns="http://www.w3.org/2000/svg" xmlns:xlink="http://www.w3.org/1999/xlink">
<g id="graph0" class="graph" transform="scale(1 1) rotate(0) translate(4 207)">
<title>dependencies</title>
<polygon fill="white" stroke="transparent" points="-4,4 -4,-207 500,-207 500,4 -4,4"/>
<text text-anchor="start" x="227.01" y="-42.4" font-family="Times-12" font-weight="bold" font-size="14.00">Legend</text>
<polygon fill="#ffffb3" stroke="transparent" points="14,-10 14,-30 34,-30 34,-10 14,-10"/>
<text text-anchor="start" x="37.63" y="-15.4" font-family="Times-12" font-size="14.00"> &#160;Declarations</text>
<polygon fill="#8dd3c7" stroke="transparent" points="127,-10 127,-30 147,-30 147,-10 127,-10"/>
<text text-anchor="start" x="150.73" y="-15.4" font-family="Times-12" font-size="14.00"> &#160;Module</text>
<polygon fill="#80b1d3" stroke="transparent" points="213,-10 213,-30 233,-30 233,-10 213,-10"/>
<text text-anchor="start" x="236.78" y="-15.4" font-family="Times-12" font-size="14.00"> &#160;Bootstrap</text>
<polygon fill="#fdb462" stroke="transparent" points="310,-10 310,-30 330,-30 330,-10 310,-10"/>
<text text-anchor="start" x="333.67" y="-15.4" font-family="Times-12" font-size="14.00"> &#160;Providers</text>
<polygon fill="#fb8072" stroke="transparent" points="406,-10 406,-30 426,-30 426,-10 406,-10"/>
<text text-anchor="start" x="429.73" y="-15.4" font-family="Times-12" font-size="14.00"> &#160;Exports</text>
<g id="clust1" class="cluster">
<title>cluster_AppModule</title>
<polygon fill="none" stroke="black" stroke-dasharray="1,5" points="67.5,-70 67.5,-195 428.5,-195 428.5,-70 67.5,-70"/>
</g>
<g id="clust3" class="cluster">
<title>cluster_AppModule_imports</title>
<polygon fill="none" stroke="black" points="213.5,-78 213.5,-130 420.5,-130 420.5,-78 213.5,-78"/>
</g>
<g id="clust6" class="cluster">
<title>cluster_AppModule_providers</title>
<polygon fill="none" stroke="black" points="75.5,-78 75.5,-130 205.5,-130 205.5,-78 75.5,-78"/>
</g>
<!-- IamModule -->
<g id="node1" class="node">
<title>IamModule</title>
<polygon fill="#8dd3c7" stroke="black" points="412.32,-122 409.32,-126 388.32,-126 385.32,-122 330.68,-122 330.68,-86 412.32,-86 412.32,-122"/>
<text text-anchor="middle" x="371.5" y="-99.8" font-family="Times,serif" font-size="14.00">IamModule</text>
</g>
<!-- AppModule -->
<g id="node3" class="node">
<title>AppModule</title>
<polygon fill="#8dd3c7" stroke="black" points="309.16,-187 306.16,-191 285.16,-191 282.16,-187 225.84,-187 225.84,-151 309.16,-151 309.16,-187"/>
<text text-anchor="middle" x="267.5" y="-164.8" font-family="Times,serif" font-size="14.00">AppModule</text>
</g>
<!-- IamModule&#45;&gt;AppModule -->
<g id="edge1" class="edge">
<title>IamModule&#45;&gt;AppModule</title>
<path fill="none" stroke="black" d="M371.5,-122.11C371.5,-141.34 371.5,-169 371.5,-169 371.5,-169 319.2,-169 319.2,-169"/>
<polygon fill="black" stroke="black" points="319.2,-165.5 309.2,-169 319.2,-172.5 319.2,-165.5"/>
</g>
<!-- UsersModule -->
<g id="node2" class="node">
<title>UsersModule</title>
<polygon fill="#8dd3c7" stroke="black" points="313.42,-122 310.42,-126 289.42,-126 286.42,-122 221.58,-122 221.58,-86 313.42,-86 313.42,-122"/>
<text text-anchor="middle" x="267.5" y="-99.8" font-family="Times,serif" font-size="14.00">UsersModule</text>
</g>
<!-- UsersModule&#45;&gt;AppModule -->
<g id="edge2" class="edge">
<title>UsersModule&#45;&gt;AppModule</title>
<path fill="none" stroke="black" d="M267.5,-122.11C267.5,-122.11 267.5,-140.99 267.5,-140.99"/>
<polygon fill="black" stroke="black" points="264,-140.99 267.5,-150.99 271,-140.99 264,-140.99"/>
</g>
<!-- AppService -->
<g id="node4" class="node">
<title>AppService</title>
<ellipse fill="#fdb462" stroke="black" cx="140.5" cy="-104" rx="56.74" ry="18"/>
<text text-anchor="middle" x="140.5" y="-99.8" font-family="Times,serif" font-size="14.00">AppService</text>
</g>
<!-- AppService&#45;&gt;AppModule -->
<g id="edge3" class="edge">
<title>AppService&#45;&gt;AppModule</title>
<path fill="none" stroke="black" d="M140.5,-122.11C140.5,-141.34 140.5,-169 140.5,-169 140.5,-169 215.56,-169 215.56,-169"/>
<polygon fill="black" stroke="black" points="215.56,-172.5 225.56,-169 215.56,-165.5 215.56,-172.5"/>
</g>
</g>
</svg>
