<?xml version="1.0" encoding="UTF-8" standalone="no"?>
<!DOCTYPE svg PUBLIC "-//W3C//DTD SVG 1.1//EN"
 "http://www.w3.org/Graphics/SVG/1.1/DTD/svg11.dtd">
<!-- Generated by graphviz version 2.47.0 (20210316.0004)
 -->
<!-- Title: dependencies Pages: 1 -->
<svg width="504pt" height="211pt"
 viewBox="0.00 0.00 504.00 211.00" xmlns="http://www.w3.org/2000/svg" xmlns:xlink="http://www.w3.org/1999/xlink">
<g id="graph0" class="graph" transform="scale(1 1) rotate(0) translate(4 207)">
<title>dependencies</title>
<polygon fill="white" stroke="transparent" points="-4,4 -4,-207 500,-207 500,4 -4,4"/>
<text text-anchor="start" x="227.01" y="-42.4" font-family="Times-12" font-weight="bold" font-size="14.00">Legend</text>
<polygon fill="#ffffb3" stroke="transparent" points="14,-10 14,-30 34,-30 34,-10 14,-10"/>
<text text-anchor="start" x="37.63" y="-15.4" font-family="Times-12" font-size="14.00"> &#160;Declarations</text>
<polygon fill="#8dd3c7" stroke="transparent" points="127,-10 127,-30 147,-30 147,-10 127,-10"/>
<text text-anchor="start" x="150.73" y="-15.4" font-family="Times-12" font-size="14.00"> &#160;Module</text>
<polygon fill="#80b1d3" stroke="transparent" points="213,-10 213,-30 233,-30 233,-10 213,-10"/>
<text text-anchor="start" x="236.78" y="-15.4" font-family="Times-12" font-size="14.00"> &#160;Bootstrap</text>
<polygon fill="#fdb462" stroke="transparent" points="310,-10 310,-30 330,-30 330,-10 310,-10"/>
<text text-anchor="start" x="333.67" y="-15.4" font-family="Times-12" font-size="14.00"> &#160;Providers</text>
<polygon fill="#fb8072" stroke="transparent" points="406,-10 406,-30 426,-30 426,-10 406,-10"/>
<text text-anchor="start" x="429.73" y="-15.4" font-family="Times-12" font-size="14.00"> &#160;Exports</text>
<g id="clust1" class="cluster">
<title>cluster_AppModule</title>
<polygon fill="none" stroke="black" stroke-dasharray="1,5" points="11.5,-70 11.5,-195 484.5,-195 484.5,-70 11.5,-70"/>
</g>
<g id="clust3" class="cluster">
<title>cluster_AppModule_imports</title>
<polygon fill="none" stroke="black" points="157.5,-78 157.5,-130 476.5,-130 476.5,-78 157.5,-78"/>
</g>
<g id="clust6" class="cluster">
<title>cluster_AppModule_providers</title>
<polygon fill="none" stroke="black" points="19.5,-78 19.5,-130 149.5,-130 149.5,-78 19.5,-78"/>
</g>
<!-- CloudModule -->
<g id="node1" class="node">
<title>CloudModule</title>
<polygon fill="#8dd3c7" stroke="black" points="468.28,-122 465.28,-126 444.28,-126 441.28,-122 374.72,-122 374.72,-86 468.28,-86 468.28,-122"/>
<text text-anchor="middle" x="421.5" y="-99.8" font-family="Times,serif" font-size="14.00">CloudModule</text>
</g>
<!-- AppModule -->
<g id="node4" class="node">
<title>AppModule</title>
<polygon fill="#8dd3c7" stroke="black" points="305.16,-187 302.16,-191 281.16,-191 278.16,-187 221.84,-187 221.84,-151 305.16,-151 305.16,-187"/>
<text text-anchor="middle" x="263.5" y="-164.8" font-family="Times,serif" font-size="14.00">AppModule</text>
</g>
<!-- CloudModule&#45;&gt;AppModule -->
<g id="edge1" class="edge">
<title>CloudModule&#45;&gt;AppModule</title>
<path fill="none" stroke="black" d="M421.5,-122.11C421.5,-141.34 421.5,-169 421.5,-169 421.5,-169 315.43,-169 315.43,-169"/>
<polygon fill="black" stroke="black" points="315.43,-165.5 305.43,-169 315.43,-172.5 315.43,-165.5"/>
</g>
<!-- IamModule -->
<g id="node2" class="node">
<title>IamModule</title>
<polygon fill="#8dd3c7" stroke="black" points="356.32,-122 353.32,-126 332.32,-126 329.32,-122 274.68,-122 274.68,-86 356.32,-86 356.32,-122"/>
<text text-anchor="middle" x="315.5" y="-99.8" font-family="Times,serif" font-size="14.00">IamModule</text>
</g>
<!-- IamModule&#45;&gt;AppModule -->
<g id="edge2" class="edge">
<title>IamModule&#45;&gt;AppModule</title>
<path fill="none" stroke="black" d="M290.09,-122.11C290.09,-122.11 290.09,-140.99 290.09,-140.99"/>
<polygon fill="black" stroke="black" points="286.59,-140.99 290.09,-150.99 293.59,-140.99 286.59,-140.99"/>
</g>
<!-- UsersModule -->
<g id="node3" class="node">
<title>UsersModule</title>
<polygon fill="#8dd3c7" stroke="black" points="257.42,-122 254.42,-126 233.42,-126 230.42,-122 165.58,-122 165.58,-86 257.42,-86 257.42,-122"/>
<text text-anchor="middle" x="211.5" y="-99.8" font-family="Times,serif" font-size="14.00">UsersModule</text>
</g>
<!-- UsersModule&#45;&gt;AppModule -->
<g id="edge3" class="edge">
<title>UsersModule&#45;&gt;AppModule</title>
<path fill="none" stroke="black" d="M239.44,-122.11C239.44,-122.11 239.44,-140.99 239.44,-140.99"/>
<polygon fill="black" stroke="black" points="235.94,-140.99 239.44,-150.99 242.94,-140.99 235.94,-140.99"/>
</g>
<!-- AppService -->
<g id="node5" class="node">
<title>AppService</title>
<ellipse fill="#fdb462" stroke="black" cx="84.5" cy="-104" rx="56.74" ry="18"/>
<text text-anchor="middle" x="84.5" y="-99.8" font-family="Times,serif" font-size="14.00">AppService</text>
</g>
<!-- AppService&#45;&gt;AppModule -->
<g id="edge4" class="edge">
<title>AppService&#45;&gt;AppModule</title>
<path fill="none" stroke="black" d="M84.5,-122.11C84.5,-141.34 84.5,-169 84.5,-169 84.5,-169 211.53,-169 211.53,-169"/>
<polygon fill="black" stroke="black" points="211.53,-172.5 221.53,-169 211.53,-165.5 211.53,-172.5"/>
</g>
</g>
</svg>
