<?xml version="1.0" encoding="UTF-8" standalone="no"?>
<!DOCTYPE svg PUBLIC "-//W3C//DTD SVG 1.1//EN"
 "http://www.w3.org/Graphics/SVG/1.1/DTD/svg11.dtd">
<!-- Generated by graphviz version 2.47.0 (20210316.0004)
 -->
<!-- Title: dependencies Pages: 1 -->
<svg width="504pt" height="284pt"
 viewBox="0.00 0.00 504.00 284.00" xmlns="http://www.w3.org/2000/svg" xmlns:xlink="http://www.w3.org/1999/xlink">
<g id="graph0" class="graph" transform="scale(1 1) rotate(0) translate(4 280)">
<title>dependencies</title>
<polygon fill="white" stroke="transparent" points="-4,4 -4,-280 500,-280 500,4 -4,4"/>
<text text-anchor="start" x="227.01" y="-42.4" font-family="Times-12" font-weight="bold" font-size="14.00">Legend</text>
<polygon fill="#ffffb3" stroke="transparent" points="14,-10 14,-30 34,-30 34,-10 14,-10"/>
<text text-anchor="start" x="37.63" y="-15.4" font-family="Times-12" font-size="14.00"> &#160;Declarations</text>
<polygon fill="#8dd3c7" stroke="transparent" points="127,-10 127,-30 147,-30 147,-10 127,-10"/>
<text text-anchor="start" x="150.73" y="-15.4" font-family="Times-12" font-size="14.00"> &#160;Module</text>
<polygon fill="#80b1d3" stroke="transparent" points="213,-10 213,-30 233,-30 233,-10 213,-10"/>
<text text-anchor="start" x="236.78" y="-15.4" font-family="Times-12" font-size="14.00"> &#160;Bootstrap</text>
<polygon fill="#fdb462" stroke="transparent" points="310,-10 310,-30 330,-30 330,-10 310,-10"/>
<text text-anchor="start" x="333.67" y="-15.4" font-family="Times-12" font-size="14.00"> &#160;Providers</text>
<polygon fill="#fb8072" stroke="transparent" points="406,-10 406,-30 426,-30 426,-10 406,-10"/>
<text text-anchor="start" x="429.73" y="-15.4" font-family="Times-12" font-size="14.00"> &#160;Exports</text>
<g id="clust1" class="cluster">
<title>cluster_ProjectModule</title>
<polygon fill="none" stroke="black" stroke-dasharray="1,5" points="56,-70 56,-268 440,-268 440,-70 56,-70"/>
</g>
<g id="clust2" class="cluster">
<title>cluster_ProjectModule_declarations</title>
<polygon fill="none" stroke="black" points="296,-78 296,-130 432,-130 432,-78 296,-78"/>
</g>
<g id="clust4" class="cluster">
<title>cluster_ProjectModule_imports</title>
<polygon fill="none" stroke="black" points="64,-78 64,-130 288,-130 288,-78 64,-78"/>
</g>
<g id="clust5" class="cluster">
<title>cluster_ProjectModule_exports</title>
<polygon fill="none" stroke="black" points="139,-208 139,-260 279,-260 279,-208 139,-208"/>
</g>
<!-- ProjectComponent -->
<g id="node1" class="node">
<title>ProjectComponent</title>
<polygon fill="#ffffb3" stroke="black" points="424.49,-122 303.51,-122 303.51,-86 424.49,-86 424.49,-122"/>
<text text-anchor="middle" x="364" y="-99.8" font-family="Times,serif" font-size="14.00">ProjectComponent</text>
</g>
<!-- ProjectModule -->
<g id="node2" class="node">
<title>ProjectModule</title>
<polygon fill="#8dd3c7" stroke="black" points="258.7,-187 255.7,-191 234.7,-191 231.7,-187 159.3,-187 159.3,-151 258.7,-151 258.7,-187"/>
<text text-anchor="middle" x="209" y="-164.8" font-family="Times,serif" font-size="14.00">ProjectModule</text>
</g>
<!-- ProjectComponent&#45;&gt;ProjectModule -->
<g id="edge1" class="edge">
<title>ProjectComponent&#45;&gt;ProjectModule</title>
<path fill="none" stroke="black" d="M364,-122.11C364,-141.34 364,-169 364,-169 364,-169 268.9,-169 268.9,-169"/>
<polygon fill="black" stroke="black" points="268.9,-165.5 258.9,-169 268.9,-172.5 268.9,-165.5"/>
</g>
<!-- ProjectComponent  -->
<g id="node6" class="node">
<title>ProjectComponent </title>
<polygon fill="#fb8072" stroke="black" points="271.49,-252 146.51,-252 146.51,-216 271.49,-216 271.49,-252"/>
<text text-anchor="middle" x="209" y="-229.8" font-family="Times,serif" font-size="14.00">ProjectComponent </text>
</g>
<!-- ProjectModule&#45;&gt;ProjectComponent  -->
<g id="edge5" class="edge">
<title>ProjectModule&#45;&gt;ProjectComponent </title>
<path fill="none" stroke="black" stroke-dasharray="5,2" d="M209,-187.11C209,-187.11 209,-205.99 209,-205.99"/>
<polygon fill="black" stroke="black" points="205.5,-205.99 209,-215.99 212.5,-205.99 205.5,-205.99"/>
</g>
<!-- NgClass -->
<g id="node3" class="node">
<title>NgClass</title>
<polygon fill="#8dd3c7" stroke="black" points="279.94,-122 276.94,-126 255.94,-126 252.94,-122 216.06,-122 216.06,-86 279.94,-86 279.94,-122"/>
<text text-anchor="middle" x="248" y="-99.8" font-family="Times,serif" font-size="14.00">NgClass</text>
</g>
<!-- NgClass&#45;&gt;ProjectModule -->
<g id="edge2" class="edge">
<title>NgClass&#45;&gt;ProjectModule</title>
<path fill="none" stroke="black" d="M237.44,-122.11C237.44,-122.11 237.44,-140.99 237.44,-140.99"/>
<polygon fill="black" stroke="black" points="233.94,-140.99 237.44,-150.99 240.94,-140.99 233.94,-140.99"/>
</g>
<!-- NgFor -->
<g id="node4" class="node">
<title>NgFor</title>
<polygon fill="#8dd3c7" stroke="black" points="198,-122 195,-126 174,-126 171,-122 144,-122 144,-86 198,-86 198,-122"/>
<text text-anchor="middle" x="171" y="-99.8" font-family="Times,serif" font-size="14.00">NgFor</text>
</g>
<!-- NgFor&#45;&gt;ProjectModule -->
<g id="edge3" class="edge">
<title>NgFor&#45;&gt;ProjectModule</title>
<path fill="none" stroke="black" d="M178.7,-122.11C178.7,-122.11 178.7,-140.99 178.7,-140.99"/>
<polygon fill="black" stroke="black" points="175.2,-140.99 178.7,-150.99 182.2,-140.99 175.2,-140.99"/>
</g>
<!-- NgIf -->
<g id="node5" class="node">
<title>NgIf</title>
<polygon fill="#8dd3c7" stroke="black" points="126,-122 123,-126 102,-126 99,-122 72,-122 72,-86 126,-86 126,-122"/>
<text text-anchor="middle" x="99" y="-99.8" font-family="Times,serif" font-size="14.00">NgIf</text>
</g>
<!-- NgIf&#45;&gt;ProjectModule -->
<g id="edge4" class="edge">
<title>NgIf&#45;&gt;ProjectModule</title>
<path fill="none" stroke="black" d="M99,-122.11C99,-141.34 99,-169 99,-169 99,-169 149.15,-169 149.15,-169"/>
<polygon fill="black" stroke="black" points="149.15,-172.5 159.15,-169 149.15,-165.5 149.15,-172.5"/>
</g>
</g>
</svg>
